<svg width="500" height="500" viewBox="0 0 500 500" fill="none" xmlns="http://www.w3.org/2000/svg">
<path d="M193.975 139.725C192.963 140.637 191.885 141.473 190.75 142.225C190.627 142.308 190.543 142.436 190.515 142.581C190.486 142.727 190.517 142.877 190.6 143C190.683 143.123 190.811 143.207 190.956 143.236C191.102 143.264 191.252 143.233 191.375 143.15C192.711 142.441 193.975 141.603 195.15 140.65C196.225 139.525 195.375 138.15 194.825 137.125C192.875 133.8 192.325 133.075 189.5 128.625C189.401 128.501 189.26 128.417 189.104 128.389C188.947 128.361 188.786 128.392 188.651 128.475C188.515 128.558 188.415 128.688 188.369 128.84C188.323 128.992 188.334 129.156 188.4 129.3C190.548 132.612 192.413 136.099 193.975 139.725ZM178.5 159.5C178.662 159.407 178.781 159.254 178.831 159.073C178.88 158.893 178.855 158.7 178.763 158.538C178.67 158.375 178.516 158.256 178.336 158.207C178.155 158.158 177.962 158.182 177.8 158.275C174.152 160.051 169.983 160.445 166.067 159.383C162.15 158.321 158.751 155.876 156.5 152.5C156.461 152.431 156.408 152.371 156.345 152.322C156.282 152.273 156.211 152.238 156.134 152.217C156.058 152.196 155.978 152.19 155.899 152.2C155.82 152.21 155.744 152.236 155.675 152.275C155.606 152.314 155.546 152.367 155.497 152.43C155.448 152.493 155.413 152.564 155.392 152.641C155.371 152.718 155.365 152.797 155.375 152.876C155.385 152.955 155.411 153.031 155.45 153.1C156.542 155.035 158.004 156.736 159.754 158.105C161.504 159.475 163.507 160.486 165.648 161.08C167.789 161.674 170.026 161.841 172.231 161.57C174.437 161.299 176.567 160.595 178.5 159.5ZM169.35 116.775C169.315 116.565 169.206 116.375 169.044 116.237C168.881 116.1 168.675 116.024 168.463 116.024C168.25 116.024 168.044 116.1 167.881 116.237C167.719 116.375 167.61 116.565 167.575 116.775C167.504 118.802 167.562 120.831 167.75 122.85C167.809 123.132 167.971 123.381 168.205 123.549C168.439 123.717 168.728 123.791 169.014 123.756C169.3 123.722 169.562 123.581 169.749 123.363C169.937 123.144 170.035 122.863 170.025 122.575C170 121.575 169.45 117.8 169.35 116.775ZM205.575 115.125C205.575 114.893 205.483 114.67 205.319 114.506C205.155 114.342 204.932 114.25 204.7 114.25C204.468 114.25 204.245 114.342 204.081 114.506C203.917 114.67 203.825 114.893 203.825 115.125V122.625C203.903 122.885 204.07 123.109 204.297 123.257C204.525 123.405 204.797 123.468 205.066 123.436C205.335 123.403 205.584 123.276 205.769 123.077C205.953 122.878 206.062 122.621 206.075 122.35C206.175 121.675 205.55 116.25 205.575 115.125ZM205.725 102.85C204.225 102.475 203.7 104.825 205.175 105.075C206.243 105.283 207.206 105.856 207.899 106.695C208.592 107.534 208.972 108.587 208.975 109.675C209.01 109.879 209.115 110.063 209.273 110.196C209.431 110.33 209.631 110.403 209.838 110.403C210.044 110.403 210.244 110.33 210.402 110.196C210.56 110.063 210.665 109.879 210.7 109.675C210.766 108.142 210.31 106.632 209.406 105.392C208.502 104.153 207.205 103.256 205.725 102.85ZM167.725 105.4C166.323 105.651 165.031 106.324 164.021 107.33C163.011 108.335 162.333 109.624 162.075 111.025C162.025 111.254 162.068 111.493 162.195 111.69C162.322 111.887 162.521 112.025 162.75 112.075C162.979 112.125 163.218 112.082 163.415 111.955C163.612 111.828 163.75 111.629 163.8 111.4C164.071 110.407 164.632 109.517 165.412 108.845C166.191 108.173 167.153 107.748 168.175 107.625C168.47 107.565 168.729 107.391 168.896 107.14C169.062 106.889 169.122 106.583 169.063 106.287C169.003 105.992 168.828 105.733 168.578 105.567C168.327 105.4 168.02 105.34 167.725 105.4ZM304.275 389.075L297 389.675C298.05 387.4 299.125 385.125 300.15 382.875C300.196 382.785 300.205 382.681 300.175 382.585C300.144 382.489 300.077 382.409 299.988 382.362C299.898 382.316 299.794 382.307 299.698 382.338C299.602 382.368 299.521 382.435 299.475 382.525C298.15 385.025 296.8 387.375 295.425 389.825C282.05 390.925 246.8 392.525 242.125 392.575C241.913 392.575 241.709 392.659 241.559 392.809C241.409 392.959 241.325 393.163 241.325 393.375C241.325 393.587 241.409 393.791 241.559 393.941C241.709 394.091 241.913 394.175 242.125 394.175C257.5 394.175 289.275 391.8 294.625 391.375C292.125 395.625 287.125 403.875 286.4 405.45C282.575 405.45 248.15 405.875 244.05 405.8C243.844 405.8 243.647 405.882 243.502 406.027C243.357 406.172 243.275 406.369 243.275 406.575C243.275 406.781 243.357 406.978 243.502 407.123C243.647 407.268 243.844 407.35 244.05 407.35C260.625 407.775 273.425 407.7 285.4 407.125L281.975 412.5C275.5 408.525 265.775 410.675 263.5 418.325C260.498 416.903 257.621 415.231 254.9 413.325C254.525 413.075 254.075 413.6 254.425 413.9C257.082 416.434 259.933 418.758 262.95 420.85C261.575 430.85 271.375 437.375 280.625 434.175C282.19 433.608 283.621 432.725 284.829 431.581C286.038 430.437 286.998 429.056 287.65 427.525C288.275 425.321 288.34 422.995 287.837 420.76C287.335 418.525 286.283 416.45 284.775 414.725C286.075 412.225 287.275 409.575 288.675 406.975C292.3 406.8 299.375 406.425 303.025 406C303.148 405.973 303.258 405.906 303.337 405.808C303.415 405.71 303.458 405.588 303.458 405.462C303.458 405.337 303.415 405.215 303.337 405.117C303.258 405.019 303.148 404.952 303.025 404.925C299.6 404.925 292.125 405.275 289.525 405.375C289.675 405.025 294.8 394.475 296.325 391.225C298.6 390.975 301.55 390.65 304.45 390.25C304.606 390.227 304.746 390.143 304.84 390.016C304.934 389.889 304.973 389.731 304.95 389.575C304.927 389.419 304.843 389.279 304.716 389.185C304.59 389.091 304.431 389.052 304.275 389.075ZM275.575 422.5C272.75 421.8 266.4 419.475 264.9 418.925C267 411.925 275.35 410.225 281.175 413.725C279.4 416.575 277.5 419.475 275.575 422.5ZM264.4 421.775C268.419 424.415 272.69 426.651 277.15 428.45C277.238 428.472 277.33 428.467 277.414 428.436C277.499 428.404 277.573 428.348 277.625 428.275C279.625 424.55 281.725 420.55 284.075 416.025C285.277 417.422 286.13 419.084 286.564 420.874C286.999 422.665 287.003 424.533 286.575 426.325C282.5 438.25 263.5 434.55 264.4 421.8V421.775ZM290.675 269.7C302.175 269.7 302.425 269.5 302.45 269.025C302.45 267.35 302.1 215.975 300.7 182.4C300.749 182.292 300.771 182.174 300.764 182.056C300.757 181.938 300.721 181.823 300.659 181.722C300.598 181.621 300.512 181.536 300.41 181.476C300.308 181.415 300.193 181.381 300.075 181.375C295.275 181.2 231.125 181.9 225.625 182.075C225.25 182.075 224.475 182.55 224.45 183.1C224.3 194.825 223.525 263.8 223.55 268.525C223.55 268.85 224 269.325 224.325 269.3C228.875 269.2 283.325 269.7 290.675 269.7ZM299.45 182.825C299.725 190.15 300.925 265.7 301 268.2C297.4 267.975 293.775 267.95 290.2 267.925C290.825 263.25 291.525 260.425 290.725 257.25C292.077 257.619 293.519 257.45 294.75 256.779C295.98 256.108 296.903 254.986 297.325 253.65C297.348 253.58 297.349 253.504 297.329 253.433C297.309 253.362 297.268 253.299 297.212 253.251C297.156 253.202 297.087 253.172 297.014 253.163C296.94 253.154 296.866 253.167 296.8 253.2C294 254.525 291.425 253.2 288.725 249.7C287.884 248.588 287.179 247.379 286.625 246.1C285.83 244.673 285.433 243.058 285.475 241.425C285.475 240.125 285.925 238.75 286.55 238.625C287.175 238.5 288.325 239.45 288.275 240.525C288.244 240.817 288.153 241.098 288.006 241.352C287.86 241.607 287.662 241.827 287.425 242C287.366 242.054 287.325 242.125 287.309 242.203C287.293 242.281 287.303 242.363 287.336 242.435C287.37 242.508 287.425 242.568 287.495 242.606C287.565 242.645 287.646 242.66 287.725 242.65C288.383 242.601 289.016 242.375 289.558 241.997C290.099 241.619 290.528 241.102 290.8 240.5C291.525 238.25 289.025 235.125 286.5 232.375C286.5 232.375 285.425 231.125 284 229.4C282.286 226.577 281.483 223.295 281.7 220C283.101 217.15 283.623 213.948 283.2 210.8C284.158 210.974 285.146 210.843 286.025 210.425C286.068 210.398 286.104 210.361 286.13 210.318C286.156 210.274 286.171 210.225 286.175 210.175C286.702 206.329 286.166 202.413 284.625 198.85C281.875 192.5 274.45 184.85 266.5 187.65C262.55 186.224 258.234 186.171 254.25 187.5C247.975 189.5 244.25 195.825 242.95 198.2C240.741 202.259 239.573 206.803 239.55 211.425C239.125 217.5 240 218.35 239.075 222.5C237.816 227.113 235.714 231.453 232.875 235.3C231.81 236.741 230.968 238.334 230.375 240.025C229.621 242.053 229.191 244.188 229.1 246.35C227.791 247.797 226.565 249.316 225.425 250.9C225.425 245.9 225.925 184.75 225.95 183.4C232.5 183.425 294.025 182.9 299.45 182.825ZM272.2 208.125C271.95 207.124 271.95 206.076 272.2 205.075C272.523 206.118 273.05 207.087 273.75 207.925C273.838 207.96 273.937 207.96 274.025 207.925H274.45C273.782 210.12 273.47 212.407 273.525 214.7C273.108 214.497 272.651 214.391 272.188 214.391C271.724 214.391 271.267 214.497 270.85 214.7C270.897 212.713 270.729 210.726 270.35 208.775L271.875 208.55C271.924 208.544 271.972 208.528 272.015 208.503C272.059 208.478 272.096 208.445 272.127 208.406C272.157 208.366 272.179 208.321 272.192 208.273C272.204 208.225 272.207 208.174 272.2 208.125ZM269.7 215.45C269.7 218.225 268.475 221.45 266.25 222C261.25 223.25 259.225 212.475 261.9 208.425C262.3 207.821 262.848 207.33 263.491 206.998C264.134 206.665 264.851 206.502 265.575 206.525C269.25 206.525 269.8 211.725 269.65 215.45H269.7ZM279.15 220.45C278.744 220.564 278.315 220.574 277.904 220.477C277.493 220.381 277.113 220.183 276.8 219.9C276.241 219.386 275.791 218.765 275.478 218.073C275.164 217.382 274.993 216.634 274.975 215.875C274.8 214.1 274.8 209.025 276.875 207.1C277.203 206.789 277.603 206.564 278.04 206.447C278.476 206.329 278.935 206.321 279.375 206.425C280.75 206.65 282.325 208.225 282.125 214.3C282 217.5 280.975 219.65 279.1 220.45H279.15ZM251.125 212.25C250.095 211.905 248.98 211.905 247.95 212.25C248.175 198.75 247.225 200.4 247.95 196.5C248.65 191 256.55 186.5 264.525 188.5C257.15 192.5 251.4 204.075 251.125 212.25ZM247.175 214.25C247.747 213.845 248.413 213.596 249.11 213.526C249.806 213.456 250.509 213.567 251.15 213.85C251.199 215.086 251.514 216.297 252.075 217.4C253.925 220.9 256.75 222.925 258.6 219.45C258.629 219.397 258.644 219.338 258.645 219.277C258.646 219.217 258.633 219.157 258.606 219.103C258.579 219.049 258.539 219.003 258.49 218.967C258.441 218.932 258.385 218.909 258.325 218.9C254.8 218.475 254.5 213.05 259.225 211.9C259.225 215.1 259.225 220.05 262.65 222.525C263.515 223.147 264.571 223.448 265.635 223.375C266.698 223.302 267.703 222.86 268.475 222.125C269.926 220.589 270.747 218.563 270.775 216.45C271.056 216.101 271.457 215.869 271.9 215.8C272.227 215.749 272.561 215.782 272.872 215.896C273.182 216.009 273.459 216.2 273.675 216.45C273.677 217.814 274.193 219.127 275.119 220.127C276.046 221.128 277.315 221.743 278.675 221.85C278.649 223.604 278.38 225.345 277.875 227.025C277.05 229.825 274.525 236.475 267.5 235.35C267.445 235.347 267.391 235.354 267.339 235.373C267.288 235.392 267.241 235.42 267.201 235.458C267.161 235.495 267.129 235.541 267.108 235.591C267.086 235.641 267.075 235.695 267.075 235.75C267.3 240.75 267.225 240.75 267.55 240.75C268.8 241.3 270.05 245.925 268.575 248.1C267.1 250.275 264.125 249.9 261.65 248.25C259.7 237.8 260.15 229.6 251.875 222C251.821 221.972 251.761 221.957 251.7 221.957C251.639 221.957 251.579 221.972 251.525 222C250.533 222.301 249.468 222.255 248.506 221.868C247.544 221.481 246.743 220.778 246.235 219.873C245.728 218.969 245.544 217.919 245.715 216.896C245.886 215.874 246.401 214.94 247.175 214.25ZM256.95 254.65C257.721 256.774 259.175 258.582 261.085 259.79C262.994 260.998 265.251 261.538 267.5 261.325C267.599 261.325 267.695 261.286 267.765 261.215C267.836 261.145 267.875 261.049 267.875 260.95C267.875 260.851 267.836 260.755 267.765 260.685C267.695 260.615 267.599 260.575 267.5 260.575C265.99 260.257 264.647 259.398 263.727 258.159C262.806 256.921 262.369 255.388 262.5 253.85C262.5 252.95 262.3 251.775 262.05 250.125C268.45 253.775 273.025 247.125 269.8 241.15C284.05 244.175 289.05 258.65 288.975 267.9H255.95C256.275 263.25 256.65 258.775 256.95 254.65ZM225.3 253.4C227.15 250.525 230.775 245.275 234.075 246.2C240 247.8 244.975 256.625 246.25 267.75H225.1C225.2 263.4 225.25 258.825 225.3 253.4ZM379.8 250C372.6 250 316.95 250.5 314.5 250.325C314.353 250.354 314.22 250.434 314.124 250.55C314.029 250.666 313.977 250.812 313.977 250.962C313.977 251.113 314.029 251.259 314.124 251.375C314.22 251.491 314.353 251.571 314.5 251.6C329.95 252.375 372.15 251.2 379.85 250.75C379.949 250.743 380.042 250.697 380.108 250.622C380.174 250.547 380.207 250.449 380.2 250.35C380.193 250.251 380.148 250.158 380.073 250.092C379.997 250.027 379.899 249.993 379.8 250ZM313.625 234.7C329.925 235.8 374.325 234.5 380.025 233.9C380.135 233.875 380.234 233.813 380.305 233.724C380.375 233.636 380.414 233.526 380.414 233.413C380.414 233.299 380.375 233.189 380.305 233.101C380.234 233.012 380.135 232.95 380.025 232.925C371.95 233.4 318.8 233.55 313.75 233.25C312.75 233.15 312.675 234.625 313.625 234.7ZM314.525 217.5C314.333 217.5 314.148 217.576 314.012 217.712C313.876 217.848 313.8 218.033 313.8 218.225C313.8 218.417 313.876 218.602 314.012 218.738C314.148 218.874 314.333 218.95 314.525 218.95C330.4 219.5 376 218.95 380.425 217.95C380.505 217.929 380.576 217.882 380.626 217.816C380.677 217.751 380.704 217.67 380.704 217.587C380.704 217.505 380.677 217.424 380.626 217.359C380.576 217.293 380.505 217.246 380.425 217.225C380.425 217.225 319.275 217.5 314.525 217.5ZM314.475 203.225C325.375 203.625 364.675 203.675 368.375 202.5C368.474 202.5 368.57 202.46 368.64 202.39C368.711 202.32 368.75 202.224 368.75 202.125C368.75 202.026 368.711 201.93 368.64 201.86C368.57 201.79 368.474 201.75 368.375 201.75C354.65 202.1 318.85 201.9 314.65 201.75C314.469 201.754 314.296 201.823 314.162 201.945C314.028 202.066 313.943 202.232 313.922 202.411C313.9 202.591 313.945 202.772 314.046 202.922C314.148 203.071 314.3 203.179 314.475 203.225ZM255.2 333.625C255.308 333.621 255.413 333.591 255.507 333.537C255.601 333.484 255.681 333.409 255.74 333.318C255.798 333.227 255.835 333.124 255.845 333.016C255.856 332.909 255.84 332.8 255.8 332.7C255.925 330.425 255.65 323.2 255.65 321.275C257.45 319.725 259.425 318.2 261.2 316.6C261.26 316.544 261.307 316.476 261.34 316.401C261.373 316.326 261.389 316.245 261.389 316.163C261.389 316.081 261.373 315.999 261.34 315.924C261.307 315.849 261.26 315.781 261.2 315.725C260.5 315.25 257.125 317.95 255.725 319.15C255.55 318.375 255.5 318.45 239.25 318.275C239.118 318.268 238.986 318.297 238.868 318.358C238.751 318.419 238.651 318.51 238.58 318.621C238.509 318.733 238.469 318.862 238.463 318.994C238.458 319.127 238.488 319.258 238.55 319.375C238.55 320.9 238.75 329.875 238.75 332.825C238.756 333.011 238.831 333.189 238.96 333.323C239.09 333.457 239.264 333.538 239.45 333.55C241.05 333.575 254.85 333.65 255.2 333.625ZM240 319.825C256 320.15 254.375 319.825 254.4 320.325C252.137 322.224 250.069 324.342 248.225 326.65C247.025 325.05 245.725 323.575 244.675 322C244.225 321.375 243.225 322 243.675 322.675C245.05 324.65 246.175 326.7 247.625 328.7C247.718 328.834 247.846 328.939 247.995 329.004C248.144 329.069 248.309 329.091 248.47 329.067C248.631 329.044 248.782 328.976 248.907 328.871C249.031 328.767 249.124 328.63 249.175 328.475C250.726 326.287 252.503 324.267 254.475 322.45C254.475 324.95 254.475 330.075 254.65 332.25C252.325 332.25 243.05 332.125 240.225 332.125C240 329.375 240 321.175 240 319.825ZM261.2 293.65C261.26 293.594 261.307 293.526 261.34 293.451C261.373 293.376 261.389 293.294 261.389 293.212C261.389 293.13 261.373 293.049 261.34 292.974C261.307 292.899 261.26 292.831 261.2 292.775C260.5 292.3 257.125 295 255.725 296.2C255.55 295.425 255.55 295.5 239.25 295.3C239.117 295.299 238.986 295.331 238.869 295.395C238.752 295.459 238.654 295.552 238.583 295.666C238.513 295.779 238.473 295.908 238.467 296.041C238.461 296.174 238.49 296.306 238.55 296.425C238.55 297.95 238.75 306.925 238.75 309.875C238.756 310.061 238.831 310.239 238.96 310.373C239.09 310.507 239.264 310.588 239.45 310.6H255.25C255.357 310.6 255.462 310.574 255.557 310.523C255.651 310.473 255.732 310.4 255.791 310.311C255.85 310.222 255.887 310.119 255.897 310.013C255.907 309.906 255.891 309.799 255.85 309.7C255.975 307.425 255.7 300.2 255.7 298.275C257.5 296.75 259.4 295.275 261.2 293.65ZM240 296.875C256 297.2 254.375 296.875 254.4 297.375C252.131 299.267 250.062 301.387 248.225 303.7C247.075 302.175 245.725 300.6 244.675 299.05C244.225 298.425 243.225 299.05 243.675 299.7C245.05 301.675 246.175 303.75 247.625 305.75C247.718 305.884 247.846 305.989 247.995 306.054C248.144 306.119 248.309 306.141 248.47 306.117C248.631 306.094 248.782 306.026 248.907 305.921C249.031 305.817 249.124 305.68 249.175 305.525C250.72 303.332 252.497 301.312 254.475 299.5C254.475 302 254.475 307 254.65 309.3H240.225C240 306.425 240 298.225 240 296.875ZM261.2 272.175C261.26 272.119 261.307 272.051 261.34 271.976C261.373 271.901 261.389 271.819 261.389 271.737C261.389 271.655 261.373 271.574 261.34 271.499C261.307 271.424 261.26 271.356 261.2 271.3C260.5 270.825 257.125 273.525 255.725 274.725C255.691 274.564 255.603 274.419 255.476 274.315C255.349 274.21 255.19 274.152 255.025 274.15C250.025 273.925 239.225 273.85 239.225 273.85C239.095 273.848 238.966 273.88 238.852 273.943C238.738 274.005 238.642 274.097 238.574 274.208C238.506 274.319 238.468 274.445 238.464 274.576C238.459 274.706 238.489 274.835 238.55 274.95C238.55 276.475 238.75 285.45 238.75 288.4C238.756 288.586 238.831 288.764 238.96 288.898C239.09 289.032 239.264 289.113 239.45 289.125H255.25C255.356 289.116 255.458 289.082 255.549 289.027C255.64 288.973 255.718 288.898 255.775 288.809C255.833 288.72 255.87 288.618 255.883 288.513C255.896 288.407 255.885 288.3 255.85 288.2C255.975 285.925 255.7 278.7 255.7 276.775C257.5 275.275 259.45 273.75 261.2 272.175ZM240 275.4C256 275.75 254.375 275.4 254.4 275.9C252.137 277.799 250.069 279.917 248.225 282.225C247.025 280.65 245.725 279.175 244.675 277.575C244.2 276.95 243.2 277.575 243.675 278.25C245.025 280.2 246.175 282.275 247.625 284.275C247.718 284.409 247.846 284.514 247.995 284.579C248.144 284.644 248.309 284.666 248.47 284.642C248.631 284.619 248.782 284.551 248.907 284.446C249.031 284.342 249.124 284.205 249.175 284.05C250.72 281.857 252.497 279.837 254.475 278.025C254.475 280.525 254.475 285.65 254.65 287.825H240.225C240 285 240 276.75 240 275.4ZM347.25 316.6C347.31 316.544 347.357 316.476 347.39 316.401C347.423 316.326 347.439 316.245 347.439 316.163C347.439 316.081 347.423 315.999 347.39 315.924C347.357 315.849 347.31 315.781 347.25 315.725C346.55 315.25 343.175 317.95 341.775 319.15C341.575 318.35 341.525 318.45 325.3 318.275C325.168 318.268 325.036 318.297 324.918 318.358C324.801 318.419 324.701 318.51 324.63 318.621C324.559 318.733 324.519 318.862 324.513 318.994C324.508 319.127 324.538 319.258 324.6 319.375C324.6 320.9 324.8 332.825 324.8 332.825C324.8 333.013 324.873 333.194 325.003 333.329C325.134 333.464 325.312 333.544 325.5 333.55H341.3C341.408 333.548 341.514 333.518 341.608 333.465C341.702 333.411 341.781 333.335 341.838 333.243C341.895 333.151 341.929 333.047 341.935 332.939C341.941 332.831 341.921 332.723 341.875 332.625C342.025 330.35 341.875 323.125 341.875 321.2C343.525 319.725 345.45 318.225 347.25 316.6ZM325.925 319.825C341.925 320.15 340.3 319.825 340.35 320.325C338.075 322.21 336.005 324.33 334.175 326.65C333 325.125 331.675 323.6 330.6 322C330.125 321.375 329.15 322 329.6 322.675C330.975 324.65 332.1 326.725 333.55 328.7C333.643 328.834 333.771 328.939 333.92 329.004C334.069 329.069 334.234 329.091 334.395 329.067C334.556 329.044 334.707 328.976 334.832 328.871C334.956 328.767 335.049 328.63 335.1 328.475C336.647 326.276 338.433 324.256 340.425 322.45C340.425 324.95 340.425 330.075 340.575 332.25C338.25 332.25 328.975 332.125 326.15 332.125C326.075 329.35 325.95 321.15 325.925 319.825ZM324.55 296.425C324.55 297.95 324.75 309.875 324.75 309.875C324.75 310.063 324.823 310.244 324.953 310.379C325.084 310.514 325.262 310.594 325.45 310.6H341.25C341.369 310.6 341.485 310.567 341.586 310.505C341.688 310.444 341.77 310.355 341.825 310.25C342.025 309.85 341.825 299.6 341.825 298.275C343.25 297.05 347.35 293.75 347.475 293.45C347.6 293.15 347.475 292.8 347.325 292.725C346.625 292.25 343.25 294.95 341.85 296.15C341.82 295.987 341.734 295.839 341.606 295.734C341.477 295.629 341.316 295.572 341.15 295.575C336.15 295.325 330.65 295.325 325.375 295.25C325.225 295.216 325.068 295.227 324.924 295.282C324.78 295.337 324.656 295.434 324.567 295.56C324.479 295.686 324.43 295.836 324.427 295.99C324.424 296.144 324.467 296.295 324.55 296.425ZM325.925 296.875C341.925 297.2 340.3 296.875 340.35 297.375C338.075 299.26 336.005 301.38 334.175 303.7C332.975 302.125 331.675 300.6 330.6 299.05C330.15 298.425 329.15 299.05 329.6 299.7C330.95 301.65 332.1 303.8 333.575 305.75C333.666 305.885 333.794 305.991 333.943 306.056C334.092 306.12 334.257 306.141 334.418 306.114C334.578 306.088 334.728 306.016 334.849 305.907C334.97 305.798 335.057 305.657 335.1 305.5C336.661 303.32 338.446 301.309 340.425 299.5C340.425 302 340.425 307 340.575 309.3H326.15C326.075 306.4 325.95 298.2 325.925 296.875ZM347.25 272.175C347.31 272.119 347.357 272.051 347.39 271.976C347.423 271.901 347.439 271.819 347.439 271.737C347.439 271.655 347.423 271.574 347.39 271.499C347.357 271.424 347.31 271.356 347.25 271.3C346.55 270.825 343.175 273.525 341.775 274.725C341.741 274.564 341.653 274.419 341.526 274.315C341.399 274.21 341.24 274.152 341.075 274.15C336.075 273.925 325.275 273.85 325.275 273.85C325.145 273.848 325.016 273.88 324.902 273.943C324.788 274.005 324.692 274.097 324.624 274.208C324.556 274.319 324.518 274.445 324.514 274.576C324.509 274.706 324.539 274.835 324.6 274.95C324.6 276.475 324.8 288.4 324.8 288.4C324.8 288.588 324.873 288.769 325.003 288.904C325.134 289.039 325.312 289.119 325.5 289.125H341.3C341.419 289.115 341.534 289.075 341.635 289.01C341.735 288.944 341.818 288.855 341.875 288.75C342.075 288.35 341.875 278.1 341.875 276.775C343.55 275.275 345.5 273.75 347.25 272.175ZM325.925 275.4C336.475 275.625 339.35 275.55 340.125 275.6C340.5 275.6 340.325 275.725 340.35 275.9C338.075 277.785 336.005 279.905 334.175 282.225C333 280.675 331.675 279.175 330.6 277.575C330.15 276.95 329.15 277.575 329.6 278.25C330.95 280.2 332.1 282.325 333.55 284.275C333.643 284.409 333.771 284.514 333.92 284.579C334.069 284.644 334.234 284.666 334.395 284.642C334.556 284.619 334.707 284.551 334.832 284.446C334.956 284.342 335.049 284.205 335.1 284.05C336.654 281.857 338.439 279.837 340.425 278.025C340.425 280.525 340.425 285.65 340.575 287.825H326.15C326.075 285 325.95 276.725 325.925 275.4ZM262.925 285.7C273.975 285.7 306.375 284.7 306.375 284.7C306.492 284.674 306.596 284.609 306.671 284.516C306.745 284.423 306.786 284.307 306.786 284.188C306.786 284.068 306.745 283.952 306.671 283.859C306.596 283.766 306.492 283.701 306.375 283.675C300.725 283.675 266.375 284.225 262.95 284.35C262.771 284.347 262.598 284.415 262.469 284.539C262.405 284.6 262.354 284.674 262.319 284.755C262.283 284.836 262.264 284.924 262.263 285.013C262.261 285.101 262.277 285.189 262.309 285.272C262.342 285.354 262.39 285.43 262.451 285.493C262.576 285.622 262.746 285.697 262.925 285.7ZM263.775 279.375C263.576 279.375 263.385 279.454 263.245 279.595C263.104 279.735 263.025 279.926 263.025 280.125C263.025 280.324 263.104 280.515 263.245 280.655C263.385 280.796 263.576 280.875 263.775 280.875L309.575 281C309.692 280.974 309.796 280.909 309.871 280.816C309.945 280.723 309.986 280.607 309.986 280.487C309.986 280.368 309.945 280.252 309.871 280.159C309.796 280.066 309.692 280.001 309.575 279.975C303.7 279.75 267.1 279.3 263.775 279.375ZM261.9 302.875C261.9 302.875 303.95 301.875 307.4 301.7C307.566 301.7 307.725 301.634 307.842 301.517C307.959 301.4 308.025 301.241 308.025 301.075C308.025 300.909 307.959 300.75 307.842 300.633C307.725 300.516 307.566 300.45 307.4 300.45C307.4 300.45 265.5 301.225 261.925 301.325C261.719 301.322 261.521 301.4 261.373 301.543C261.226 301.686 261.141 301.882 261.138 302.087C261.134 302.293 261.213 302.491 261.356 302.639C261.499 302.787 261.694 302.872 261.9 302.875ZM261.925 307.5C264.425 307.5 275.975 306.675 277.225 306.5C277.351 306.5 277.472 306.45 277.561 306.361C277.65 306.272 277.7 306.151 277.7 306.025C277.7 305.899 277.65 305.778 277.561 305.689C277.472 305.6 277.351 305.55 277.225 305.55C277.225 305.55 264.525 306.025 261.95 306.075C261.783 306.103 261.632 306.189 261.521 306.317C261.411 306.445 261.349 306.608 261.346 306.777C261.343 306.946 261.399 307.111 261.505 307.243C261.611 307.375 261.759 307.466 261.925 307.5ZM298.075 319.75C288.325 319.352 278.56 319.494 268.825 320.175C267.9 320.175 267.9 321.675 268.825 321.675C271.65 321.675 264.075 321.675 291.325 320.975L297.925 320.825C298.055 320.822 298.18 320.772 298.278 320.686C298.375 320.599 298.438 320.48 298.456 320.351C298.474 320.222 298.446 320.091 298.376 319.981C298.306 319.87 298.2 319.789 298.075 319.75ZM268.175 327.85C268.009 327.881 267.859 327.97 267.751 328.1C267.643 328.23 267.584 328.393 267.584 328.562C267.584 328.732 267.643 328.895 267.751 329.025C267.859 329.155 268.009 329.244 268.175 329.275H294.475C294.628 329.275 294.774 329.214 294.882 329.107C294.989 328.999 295.05 328.853 295.05 328.7C295.05 328.548 294.989 328.401 294.882 328.293C294.774 328.186 294.628 328.125 294.475 328.125C285.726 327.412 276.937 327.32 268.175 327.85ZM374.35 284.775C365.585 284.049 356.781 283.932 348 284.425C347.834 284.456 347.684 284.545 347.576 284.675C347.468 284.805 347.409 284.968 347.409 285.138C347.409 285.307 347.468 285.47 347.576 285.6C347.684 285.73 347.834 285.819 348 285.85H374.3C374.411 285.814 374.509 285.745 374.58 285.652C374.651 285.559 374.691 285.447 374.697 285.33C374.702 285.213 374.672 285.097 374.61 284.998C374.548 284.899 374.457 284.821 374.35 284.775ZM349.6 278.8C349.434 278.831 349.284 278.92 349.176 279.05C349.068 279.18 349.009 279.343 349.009 279.513C349.009 279.682 349.068 279.845 349.176 279.975C349.284 280.105 349.434 280.194 349.6 280.225C360.7 280.225 389.45 279.8 392.7 279.725C392.799 279.725 392.895 279.685 392.965 279.615C393.036 279.545 393.075 279.449 393.075 279.35C393.075 279.251 393.036 279.155 392.965 279.085C392.895 279.015 392.799 278.975 392.7 278.975C383.975 278.275 363.075 278.725 349.6 278.8ZM386.55 301.3C380.125 301.575 355.35 301.3 349.3 300.65C348.375 300.65 348.3 301.975 349.3 302.075C355.375 302.725 380.15 302.925 386.675 302.375C386.798 302.337 386.904 302.258 386.975 302.15C387.045 302.042 387.076 301.913 387.061 301.785C387.046 301.657 386.987 301.539 386.894 301.45C386.8 301.361 386.679 301.308 386.55 301.3ZM367.275 306.225C364.225 306.05 352.1 305.775 349.1 305.825C348.928 305.825 348.762 305.893 348.64 306.015C348.519 306.137 348.45 306.303 348.45 306.475C348.45 306.647 348.519 306.813 348.64 306.935C348.762 307.057 348.928 307.125 349.1 307.125H367.25C367.369 307.128 367.485 307.084 367.572 307.002C367.659 306.92 367.709 306.807 367.713 306.688C367.716 306.568 367.672 306.452 367.59 306.366C367.508 306.279 367.394 306.228 367.275 306.225ZM384.725 322.5C384.864 322.5 384.998 322.445 385.096 322.346C385.195 322.248 385.25 322.114 385.25 321.975C385.25 321.836 385.195 321.702 385.096 321.604C384.998 321.505 384.864 321.45 384.725 321.45C379.1 321.25 359.2 320.95 354.875 320.825C354.711 320.825 354.553 320.886 354.432 320.997C354.312 321.109 354.238 321.261 354.225 321.425C354.218 321.6 354.279 321.771 354.396 321.901C354.513 322.032 354.675 322.112 354.85 322.125C364.725 322.5 374.75 322.725 384.725 322.5ZM367.775 327.15C364.025 327.15 360.1 327.3 355.875 327.475C355.69 327.508 355.523 327.605 355.402 327.749C355.282 327.893 355.216 328.075 355.216 328.263C355.216 328.45 355.282 328.632 355.402 328.776C355.523 328.92 355.69 329.017 355.875 329.05C356.125 329.05 363.925 328.675 367.825 328.25C367.971 328.243 368.108 328.179 368.207 328.071C368.305 327.963 368.357 327.821 368.35 327.675C368.343 327.529 368.279 327.392 368.171 327.293C368.063 327.195 367.921 327.143 367.775 327.15ZM387.775 342.825C376.475 342.5 245.125 342.5 241 342.5C240.788 342.5 240.584 342.584 240.434 342.734C240.284 342.884 240.2 343.088 240.2 343.3C240.2 343.512 240.284 343.716 240.434 343.866C240.584 344.016 240.788 344.1 241 344.1C243.25 344.1 380 343.925 387.8 343.625C387.906 343.622 388.007 343.576 388.079 343.499C388.152 343.422 388.191 343.319 388.188 343.212C388.184 343.106 388.139 343.006 388.062 342.933C387.984 342.861 387.881 342.822 387.775 342.825ZM388.15 354.8C388.15 354.125 392.025 353.9 281.45 354.075H243.95C243.764 354.075 243.586 354.149 243.455 354.28C243.324 354.411 243.25 354.589 243.25 354.775C243.25 354.961 243.324 355.139 243.455 355.27C243.586 355.401 243.764 355.475 243.95 355.475C246.775 355.475 383.35 355.35 387.825 355.15C387.911 355.139 387.991 355.097 388.05 355.033C388.11 354.97 388.145 354.887 388.15 354.8ZM241 366.125C240.84 366.156 240.696 366.241 240.592 366.367C240.488 366.492 240.432 366.65 240.432 366.812C240.432 366.975 240.488 367.133 240.592 367.258C240.696 367.384 240.84 367.469 241 367.5C248.5 367.625 296.175 368.925 298.225 368.925C298.348 368.898 298.458 368.83 298.537 368.733C298.615 368.635 298.658 368.513 298.658 368.387C298.658 368.262 298.615 368.14 298.537 368.042C298.458 367.944 298.348 367.877 298.225 367.85C290.8 367.275 245.675 366.15 241 366.125ZM299.85 379.525C299.973 379.498 300.083 379.431 300.162 379.333C300.24 379.235 300.283 379.113 300.283 378.987C300.283 378.862 300.24 378.74 300.162 378.642C300.083 378.544 299.973 378.477 299.85 378.45C287.35 379.325 240.575 380 240.825 380C240.64 380.033 240.473 380.13 240.352 380.274C240.232 380.418 240.166 380.6 240.166 380.787C240.166 380.975 240.232 381.157 240.352 381.301C240.473 381.445 240.64 381.542 240.825 381.575C255 382.075 294.725 380.175 299.85 379.525ZM382.825 368.925C382.924 368.925 383.02 368.885 383.09 368.815C383.161 368.745 383.2 368.649 383.2 368.55C383.2 368.451 383.161 368.355 383.09 368.285C383.02 368.214 382.924 368.175 382.825 368.175C375.2 367.925 327.3 367.5 325.325 367.35C325.153 367.382 324.997 367.473 324.885 367.608C324.773 367.742 324.711 367.912 324.711 368.087C324.711 368.263 324.773 368.432 324.885 368.567C324.997 368.702 325.153 368.793 325.325 368.825C339.075 369.4 377.725 369.25 382.825 368.925ZM326.675 380.575C340.625 381.625 380.075 381.15 386 380.75C386.139 380.75 386.273 380.695 386.371 380.596C386.47 380.498 386.525 380.364 386.525 380.225C386.525 380.086 386.47 379.952 386.371 379.854C386.273 379.755 386.139 379.7 386 379.7C381.85 379.9 331 379.25 326.775 378.975C325.675 378.9 325.65 380.5 326.675 380.575ZM391.4 426.025C372.275 424.925 320.625 424.2 321.725 424.2C321.506 424.2 321.296 424.287 321.142 424.442C320.987 424.596 320.9 424.806 320.9 425.025C320.9 425.244 320.987 425.454 321.142 425.608C321.296 425.763 321.506 425.85 321.725 425.85L391.375 427C391.486 426.978 391.587 426.918 391.66 426.832C391.733 426.745 391.774 426.636 391.777 426.522C391.78 426.409 391.744 426.298 391.676 426.208C391.607 426.117 391.51 426.053 391.4 426.025ZM385.95 416.075C383.95 416.25 383.7 415.925 383.05 415.1C379.9 411.1 377.175 416.5 372.625 416.7C371.45 416.7 370.6 416.7 370.35 416.225C370.1 415.75 370.2 415.625 370.35 415.125C370.5 414.625 373.25 413.3 373.075 412.45C373.019 412.29 372.908 412.154 372.761 412.067C372.615 411.98 372.443 411.948 372.275 411.975C371.601 412.148 370.97 412.459 370.424 412.89C369.877 413.32 369.426 413.86 369.1 414.475C366.025 416.025 362.125 418.1 359.925 415.325C359.776 415.085 359.679 414.816 359.641 414.536C359.602 414.256 359.622 413.972 359.7 413.7L361 412.425C361.085 412.322 361.135 412.195 361.145 412.062C361.155 411.929 361.124 411.796 361.055 411.681C360.987 411.566 360.885 411.475 360.764 411.421C360.642 411.366 360.506 411.35 360.375 411.375C359.937 411.489 359.532 411.708 359.197 412.013C358.862 412.318 358.605 412.699 358.45 413.125C356.808 414.593 354.985 415.845 353.025 416.85C352.375 417.175 350.9 418.125 350.325 417.675C349.75 417.225 349.925 414.55 350.175 413.575C354.25 409.875 354.15 408.825 354.1 408.35C354.05 407.875 353.35 407.075 352.825 407.425C350.858 408.784 349.418 410.779 348.75 413.075C346.025 415.05 341.5 417.825 340.55 414.575C344.347 412.269 347.327 408.834 349.075 404.75C349.65 403.3 350.6 400.85 349.075 399.5C347.55 398.15 345.675 400.025 344.725 401.025C341.28 404.376 339.287 408.945 339.175 413.75C336.654 415.254 334.04 416.599 331.35 417.775C329.6 418.6 328.175 419.1 327.425 417.65C326.903 416.324 326.756 414.879 327 413.475C327.488 406.383 330.401 399.674 335.25 394.475C336.116 393.472 337.298 392.794 338.6 392.55C338.863 392.561 339.119 392.629 339.353 392.75C339.586 392.871 339.79 393.042 339.95 393.25C341.2 394.725 340.6 396.725 339.825 398.825C339.575 399.525 340.65 399.9 340.95 399.2C341.473 398.31 341.801 397.32 341.913 396.295C342.025 395.269 341.918 394.231 341.6 393.25C341.265 392.403 340.611 391.722 339.779 391.353C338.947 390.984 338.003 390.956 337.15 391.275C335.277 392.182 333.687 393.582 332.55 395.325C328.722 400.185 326.339 406.024 325.675 412.175C325.25 416.175 325.675 420.725 329.575 420C330.627 419.731 331.642 419.336 332.6 418.825C334.966 417.793 337.27 416.625 339.5 415.325C340.925 418.975 345.225 417.1 348.525 414.9C348.225 417.85 349.375 420.05 352.075 418.825C354.362 417.866 356.487 416.558 358.375 414.95C358.603 415.755 359.069 416.471 359.711 417.007C360.353 417.542 361.143 417.871 361.975 417.95C364.377 418.001 366.744 417.368 368.8 416.125C368.8 418.625 372.425 418.625 374.75 417.75C378.225 416.675 380.05 414.25 381.5 415.5C382.225 416.125 382.65 417.15 383.85 417.475C385.134 417.63 386.435 417.571 387.7 417.3C390.975 416.95 394.525 416.725 397.5 416.25C397.599 416.25 397.695 416.21 397.765 416.14C397.836 416.07 397.875 415.974 397.875 415.875C397.875 415.776 397.836 415.68 397.765 415.61C397.695 415.539 397.599 415.5 397.5 415.5L385.95 416.075ZM346.375 401.3C348.525 399.25 349.675 400.825 347.45 405.225C345.815 408.271 343.432 410.852 340.525 412.725C340.958 408.313 343.048 404.23 346.375 401.3Z" fill="#212730"/>
<path d="M273.2 223.325L272.375 224.1C272.271 224.199 272.206 224.331 272.191 224.474C272.177 224.616 272.213 224.759 272.295 224.877C272.376 224.994 272.497 225.079 272.636 225.116C272.774 225.152 272.921 225.138 273.05 225.075C273.565 224.819 274.051 224.509 274.5 224.15C274.725 223.9 275.025 223.5 272.5 219.5C272.412 219.398 272.291 219.33 272.158 219.308C272.025 219.286 271.888 219.311 271.772 219.38C271.656 219.448 271.568 219.555 271.522 219.682C271.477 219.81 271.478 219.949 271.525 220.075C271.7 220.375 272.9 222.75 273.2 223.325ZM264.225 231.05C264.9 231.365 265.656 231.465 266.39 231.335C267.123 231.205 267.799 230.852 268.325 230.325C268.439 230.175 268.495 229.988 268.481 229.799C268.467 229.611 268.385 229.434 268.25 229.302C268.115 229.17 267.936 229.092 267.747 229.082C267.559 229.073 267.373 229.132 267.225 229.25C265.875 230.375 262.925 229.25 261.9 227.85C261.475 227.3 260.6 227.85 261.025 228.45C261.799 229.625 262.917 230.533 264.225 231.05ZM265.95 215.725C265.95 215.572 265.89 215.426 265.782 215.318C265.674 215.211 265.528 215.15 265.375 215.15C265.223 215.15 265.076 215.211 264.969 215.318C264.861 215.426 264.8 215.572 264.8 215.725C264.74 216.482 264.74 217.243 264.8 218C264.889 218.137 265.019 218.243 265.171 218.302C265.323 218.362 265.491 218.371 265.649 218.329C265.807 218.288 265.948 218.197 266.051 218.071C266.155 217.944 266.216 217.788 266.225 217.625C266.25 217.175 265.975 215.975 265.95 215.725ZM277.85 215.375C277.85 215.203 277.782 215.037 277.66 214.915C277.538 214.793 277.373 214.725 277.2 214.725C277.028 214.725 276.862 214.793 276.741 214.915C276.619 215.037 276.55 215.203 276.55 215.375C276.55 217.875 276.75 218.05 276.875 218.15C276.952 218.222 277.043 218.277 277.143 218.31C277.243 218.343 277.349 218.355 277.454 218.343C277.559 218.331 277.66 218.296 277.75 218.241C277.84 218.186 277.917 218.113 277.975 218.025C278.046 217.14 278.004 216.249 277.85 215.375ZM265.25 213.35C265.346 213.364 265.444 213.358 265.537 213.332C265.631 213.307 265.718 213.262 265.793 213.201C265.868 213.14 265.93 213.063 265.974 212.977C266.018 212.891 266.044 212.797 266.05 212.7C266.05 212.075 265.55 211.75 264.925 211.825C264.458 211.89 264.027 212.11 263.7 212.451C263.374 212.791 263.171 213.231 263.125 213.7C263.108 214 263.108 214.3 263.125 214.6C263.102 214.752 263.14 214.908 263.232 215.032C263.323 215.156 263.46 215.239 263.613 215.262C263.765 215.286 263.921 215.247 264.045 215.156C264.169 215.065 264.252 214.927 264.275 214.775C264.25 214.225 264.65 213.225 265.25 213.35ZM278.275 211.15C278.077 211.119 277.874 211.163 277.707 211.275C277.539 211.386 277.42 211.557 277.373 211.752C277.326 211.947 277.354 212.153 277.452 212.329C277.549 212.505 277.709 212.637 277.9 212.7C278.9 212.925 278.875 213.55 278.825 213.725C278.798 213.831 278.804 213.943 278.842 214.046C278.879 214.149 278.946 214.239 279.035 214.303C279.124 214.368 279.23 214.404 279.339 214.408C279.449 214.412 279.557 214.383 279.65 214.325C280.35 213.975 280 211.55 278.275 211.15ZM433.725 440C430.85 439.025 426.625 442.5 427.625 445.2C427.987 445.946 428.627 446.52 429.407 446.8C430.187 447.08 431.046 447.044 431.8 446.7C433.25 446.225 435.5 444.75 435.8 443.1C435.879 442.421 435.714 441.736 435.334 441.168C434.953 440.6 434.383 440.186 433.725 440ZM432.1 445C431.175 445.45 429.925 445.825 429.225 445C428.525 444.175 430.825 441.35 432.825 441.475C434.075 441.4 435.7 443.1 432.1 445Z" fill="#212730"/>
<path d="M487.3 356.575C476.35 356.25 463.425 356.025 450.325 356.875C448.83 351.366 446.993 345.955 444.825 340.675C440.563 330.039 433.776 320.601 425.05 313.175C424.465 312.822 423.807 312.606 423.126 312.543C422.445 312.48 421.759 312.573 421.119 312.813C420.479 313.054 419.902 313.436 419.431 313.932C418.96 314.428 418.608 315.024 418.4 315.675C418.4 315.4 415.325 183.975 414.975 175.375C414.975 174.825 414.975 174.75 414.425 174.7H384.425C384.418 173.537 384.093 172.398 383.484 171.406C382.876 170.415 382.008 169.609 380.975 169.075C380.066 168.619 379.047 168.427 378.034 168.523C377.021 168.618 376.055 168.996 375.247 169.614C374.439 170.232 373.821 171.065 373.463 172.017C373.106 172.969 373.023 174.003 373.225 175C360 175 245 173.9 233.025 173.775C231.896 169.131 229.637 164.837 226.45 161.275C222.6 156.725 221.65 153 219.65 145.375C217.774 138.158 216.99 130.7 217.325 123.25C219.389 115.496 220.174 107.457 219.65 99.45C223.223 100.46 226.95 100.816 230.65 100.5C230.733 100.49 230.809 100.452 230.868 100.393C230.927 100.334 230.965 100.258 230.975 100.175C232.23 89.7202 231.04 79.1169 227.5 69.2C222.5 54.95 209.625 36.7 193.15 30.325C189.153 28.65 184.83 27.8971 180.502 28.1221C176.174 28.3472 171.952 29.5444 168.15 31.625C150 27.675 131.175 32.5 119.025 44.125C97.775 56.425 89.75 86.45 88.45 110.375C87.5 127.875 89.575 125.025 88 133.875C85.15 149.925 76.775 163.4 71.75 171.375C66.275 180.225 64.4 181.375 61.55 187.95C58.3733 195.546 56.7171 203.691 56.675 211.925C40.225 229.55 30 255 26.275 287.5C23.975 310.5 22.5 334.65 32.5 355.9L33.275 357.225C28.275 357.225 14.275 357.475 12.65 357.8C12.4776 357.8 12.3123 357.868 12.1904 357.99C12.0685 358.112 12 358.278 12 358.45C12 358.622 12.0685 358.788 12.1904 358.91C12.3123 359.031 12.4776 359.1 12.65 359.1C13.925 359.1 33.575 358.675 34.025 358.675C54.25 390.875 102.125 399.525 116.65 401.45C135.003 403.56 153.524 403.794 171.925 402.15C178.35 401.7 184.875 400.85 187.85 395.475C194.924 397.291 202.274 397.774 209.525 396.9C208.7 437.6 208.375 446.725 208.55 448.725C208.55 449.425 208.55 449.275 209.225 449.3C255.375 450.075 393.625 453.4 406.575 452.15C406.661 452.139 406.741 452.097 406.8 452.033C406.86 451.97 406.895 451.887 406.9 451.8V445.025H416.9C417.093 444.992 417.272 444.899 417.411 444.761C417.549 444.622 417.642 444.443 417.675 444.25C417.675 439.575 417.475 434.875 417.45 430.075C419.71 431.028 421.689 432.543 423.2 434.475C422.575 434.95 418.725 437.625 418.725 437.625C418.58 437.73 418.478 437.884 418.437 438.058C418.396 438.233 418.418 438.416 418.5 438.575C420.475 442.575 425.7 453.7 425.7 453.7L418.775 457.325C418.692 457.368 418.628 457.441 418.595 457.528C418.563 457.616 418.565 457.713 418.6 457.8C428.6 481.725 428.05 480.425 428.425 480.425C487.275 480.425 484.95 480.425 485.175 480.3C485.4 480.175 485.175 482.125 484.275 428.975C484.275 428.725 484.275 428.775 480.95 425.175C480.885 425.126 480.806 425.1 480.725 425.1C480.644 425.1 480.565 425.126 480.5 425.175L475 428.025C473.375 423.15 471.45 418.025 468.95 411.675C468.922 411.582 468.875 411.497 468.813 411.423C468.75 411.35 468.673 411.29 468.586 411.248C468.499 411.205 468.404 411.181 468.308 411.178C468.211 411.174 468.115 411.19 468.025 411.225C465.525 412.2 463.025 413.25 460.7 414.3C457.35 395.725 455.525 376.8 450.7 358.525C463.2 357.6 476.05 357.95 487.25 357.9C487.426 357.907 487.597 357.843 487.726 357.724C487.855 357.604 487.931 357.438 487.938 357.263C487.944 357.087 487.881 356.916 487.761 356.787C487.642 356.658 487.476 356.582 487.3 356.575ZM380.375 170.775C381.079 171.178 381.674 171.745 382.109 172.429C382.545 173.113 382.808 173.892 382.875 174.7C381.475 174.7 376.45 174.925 374.775 174.925C374.67 174.217 374.759 173.494 375.033 172.832C375.307 172.171 375.755 171.596 376.33 171.17C376.905 170.744 377.585 170.482 378.298 170.413C379.01 170.343 379.728 170.468 380.375 170.775ZM383.65 195.225C383.65 196.95 383.825 199.575 382.075 200C380.325 200.425 378.975 198.6 378.575 197.25C378.334 196.241 378.192 195.211 378.15 194.175C378 192.15 377.8 184.675 377.825 182.575C377.825 181.8 376.725 181.85 376.65 182.575C376.361 185.633 376.295 188.708 376.45 191.775C376.379 193.931 376.658 196.083 377.275 198.15C378.725 202.45 384.275 202.975 384.775 197.95C385.083 190.741 384.966 183.52 384.425 176.325C392.925 176.325 410.65 176.15 413.7 176.1C414.175 200.925 417.3 351.6 418.025 376.3C415.049 372.105 411.756 368.143 408.175 364.45C405.675 362.575 401.875 361.75 400.1 364.45C398.325 367.15 399.275 370.2 399.575 374.075C400.725 389.25 407.3 402.625 410.4 410.7C411.556 414.607 413.563 418.21 416.275 421.25C415.525 428.625 416.1 436.025 416.075 443.425C415.825 443.425 227.725 442.325 219.6 442.375C216.8 157.5 216.325 180.6 217.675 175C234.075 175.35 217.925 175.35 383 176.25C383.25 179.075 383.75 191.05 383.65 195.225ZM418.65 324.15C419.103 326.282 419.679 328.385 420.375 330.45C419.872 330.113 419.336 329.828 418.775 329.6C418.675 327.825 418.65 326 418.6 324.15H418.65ZM405.55 451.125C378.2 450.65 225.975 448.15 210.175 447.925C210.725 422.5 215.95 230 213.275 205.65L213.675 178.925L215.575 178.525C216.55 234.475 216.775 443.75 219.125 443.75C234.55 443.75 400.125 445.025 405.5 445.025C405.5 446.575 405.45 449.65 405.5 451.125H405.55ZM124.675 400.75C94.175 398.125 67.825 388.25 48.5 372.525C44.2618 369.159 40.5022 365.231 37.325 360.85C28.35 347.65 26.75 331.3 26.425 315.55C53.1999 305.375 82.7429 305.18 109.65 315C108.875 321.3 108.475 321.275 108.85 321.85C109.225 322.425 109.1 322.1 112.9 322.875C99.125 328.65 81.225 339.025 71.9 356.025C69.2043 361.346 67.5095 367.117 66.9 373.05C66.9075 373.172 66.9576 373.289 67.0418 373.378C67.1259 373.467 67.2387 373.524 67.3605 373.539C67.4823 373.554 67.6055 373.526 67.7086 373.459C67.8117 373.393 67.8883 373.292 67.925 373.175C72 344.1 102.1 328.65 115.25 323.375C123.45 325.15 131.775 327.1 140.025 329.175C133.518 336.899 128.618 345.844 125.613 355.485C122.608 365.127 121.558 375.272 122.525 385.325C122.553 385.46 122.627 385.581 122.734 385.669C122.841 385.756 122.975 385.803 123.113 385.803C123.25 385.803 123.384 385.756 123.491 385.669C123.598 385.581 123.672 385.46 123.7 385.325C122.208 365.148 128.588 345.176 141.5 329.6C152.62 332.693 163.324 337.125 173.375 342.8C162.725 357.15 160.125 377.15 166.925 392.8C166.991 392.892 167.086 392.959 167.195 392.991C167.304 393.022 167.42 393.015 167.525 392.971C167.629 392.928 167.716 392.85 167.77 392.751C167.825 392.652 167.844 392.537 167.825 392.425C164.777 384.359 163.797 375.658 164.977 367.116C166.156 358.574 169.456 350.464 174.575 343.525C178.05 345.4 181.475 347.325 184.075 348.8C188.4 351.3 193.025 354.225 194.075 358.8C192.169 357.39 189.811 356.732 187.45 356.95C184.35 357.6 182.85 360.95 181.95 362.925C179.268 368.886 178.174 375.441 178.775 381.95C179.15 386.95 180.4 392.875 186.575 395.175C184.325 398.75 179.9 399.8 176.7 400.175C159.41 401.916 141.999 402.108 124.675 400.75ZM98.45 286.925C98.5427 286.989 98.655 287.017 98.7669 287.006C98.8787 286.995 98.9829 286.944 99.0609 286.863C99.1389 286.782 99.1857 286.676 99.1928 286.564C99.2 286.451 99.1671 286.34 99.1 286.25C90.5732 277.484 80.2231 270.701 68.7829 266.381C57.3428 262.06 45.0925 260.309 32.9 261.25C35.5283 251.072 39.3815 241.25 44.375 232C55.1208 228.636 66.6177 228.501 77.4394 231.612C88.2611 234.723 97.9312 240.943 105.25 249.5C105.925 251.6 106.425 253.425 106.85 255C109.35 264.425 112.875 277.95 103.2 276.75C103.124 276.74 103.046 276.754 102.978 276.789C102.91 276.825 102.854 276.881 102.819 276.949C102.784 277.017 102.77 277.095 102.78 277.171C102.79 277.247 102.823 277.318 102.875 277.375C104.21 278.9 106.045 279.902 108.05 280.2C110.408 291.127 110.998 302.361 109.8 313.475C82.868 303.473 53.2101 303.65 26.4 313.975C26.3719 296.8 28.4201 279.684 32.5 263C44.5604 262.087 56.677 263.748 68.0468 267.873C79.4167 271.998 89.78 278.492 98.45 286.925ZM57.7 213.35C73.05 203.975 83.175 212.2 94.475 228.5C98.2507 233.569 101.336 239.118 103.65 245C96.1542 237.545 86.7958 232.237 76.5504 229.629C66.305 227.022 55.5478 227.21 45.4 230.175C48.8761 224.136 53.0005 218.494 57.7 213.35ZM146.075 317.5C144.333 312.87 142.88 308.135 141.725 303.325C151.502 306.979 161.936 308.547 172.356 307.927C182.776 307.307 192.95 304.513 202.225 299.725C202.34 299.64 202.42 299.516 202.452 299.377C202.484 299.238 202.465 299.092 202.399 298.965C202.332 298.838 202.223 298.74 202.09 298.686C201.958 298.633 201.81 298.629 201.675 298.675C192.331 303.24 182.149 305.84 171.76 306.313C161.371 306.786 150.995 305.122 141.275 301.425C139.212 292.142 137.949 282.699 137.5 273.2C148.625 279.825 164.125 280.85 177.125 280.225C181.676 280.208 186.134 278.927 190 276.525C190.136 276.442 190.233 276.309 190.271 276.154C190.308 275.999 190.283 275.836 190.2 275.7C190.117 275.564 189.984 275.467 189.829 275.429C189.674 275.392 189.511 275.417 189.375 275.5C182.7 279.2 174.8 278.925 167.15 278.625C156.825 278.25 146.3 276.825 137.525 271.125C136.82 256.836 138.193 242.52 141.6 228.625C143.633 234.379 146.335 239.875 149.65 245C153.175 250.325 155.525 253.825 159.875 255.875C165.113 258.023 170.987 258.023 176.225 255.875C176.296 255.848 176.357 255.8 176.399 255.737C176.442 255.675 176.465 255.601 176.465 255.525C176.465 255.449 176.442 255.375 176.399 255.313C176.357 255.25 176.296 255.202 176.225 255.175C166.025 252.675 161.225 243.45 159.625 234.5C180.3 245.825 202.65 237 209.35 220.55C209.377 220.428 209.361 220.3 209.305 220.188C209.249 220.076 209.157 219.986 209.043 219.934C208.929 219.881 208.801 219.869 208.68 219.9C208.558 219.93 208.451 220 208.375 220.1C200 236.75 178.5 243.6 159.3 232.325C158.65 226.775 159.675 226.25 157.9 216.5C170.825 226.5 186.95 218.6 185.4 203.725C184.944 200.204 183.564 196.866 181.4 194.05C187.45 192.65 191.025 194.525 199.525 199.625C203.725 202.125 207.875 204.975 211.85 207.8C212.25 217.5 212.25 236.7 212.025 260.3C207.531 264.898 201.739 268.012 195.425 269.225C195.295 269.264 195.185 269.35 195.114 269.466C195.044 269.581 195.018 269.719 195.043 269.852C195.068 269.985 195.141 270.105 195.248 270.187C195.356 270.27 195.49 270.31 195.625 270.3C201.714 269.404 207.388 266.685 211.9 262.5C211.625 291.275 211.025 326.175 210.4 358.175C207.6 358.175 198.725 358.175 195.4 358.375C193.825 351.2 185.875 348.025 180 344.6C174.125 341.175 167.5 337.825 161.05 334.85C173.15 336.425 186.575 336.75 197.6 329.85C197.756 329.757 197.868 329.606 197.913 329.43C197.957 329.255 197.93 329.068 197.837 328.912C197.745 328.757 197.594 328.644 197.418 328.6C197.242 328.555 197.056 328.582 196.9 328.675C183.425 336.175 164.825 334.85 153 331.45C139.074 326.954 124.88 323.338 110.5 320.625C112.828 307.222 112.548 293.496 109.675 280.2C113.975 279.725 117.4 275.825 119.25 271.875C124.012 289.202 133.027 305.065 145.475 318.025C145.545 318.105 145.643 318.153 145.748 318.16C145.854 318.167 145.958 318.132 146.038 318.062C146.117 317.993 146.166 317.894 146.173 317.789C146.18 317.684 146.145 317.58 146.075 317.5ZM210.375 359.5C210.375 363.65 210.225 367.725 210.15 371.75C205.774 367.267 200.949 363.246 195.75 359.75V359.6C198.7 359.6 207.7 359.65 210.375 359.5ZM188.35 93.425C188.394 89.0209 188.88 84.6322 189.8 80.325C190.796 84.5691 192.736 88.534 195.475 91.925C195.533 91.9537 195.597 91.9686 195.663 91.9686C195.728 91.9686 195.792 91.9537 195.85 91.925L198.175 91.375C193.7 97.675 193.175 105.5 193.175 113.6C193.175 114.8 193.175 115.9 193.3 116.925C192.591 116.227 191.732 115.701 190.788 115.388C189.844 115.075 188.841 114.982 187.856 115.117C186.87 115.252 185.929 115.612 185.105 116.168C184.28 116.724 183.594 117.462 183.1 118.325C183.205 110.614 182.501 102.914 181 95.35L187.95 93.7C188.039 93.7148 188.131 93.6944 188.205 93.6431C188.28 93.5918 188.332 93.5137 188.35 93.425ZM176.125 133.425C167.225 140.925 156.9 132.025 154.075 122.8C152.375 116.725 150.875 100.575 157.35 92.25C158.702 90.5097 160.452 89.1198 162.454 88.1974C164.455 87.275 166.649 86.8472 168.85 86.95C176.7 86.95 179.675 94.225 180.775 101.95C182.175 111.9 183.9 127.15 176.125 133.425ZM125.175 107.775C123.455 106.891 121.529 106.485 119.599 106.599C117.668 106.713 115.804 107.344 114.2 108.425C112.775 99.675 112.6 98.425 112.675 83.975C112.675 74.325 112.675 61.475 116.05 52.9C122.35 36.3 148.05 29.35 166.05 32.9C136.45 50.75 126.475 87.975 125.175 107.775ZM119.5 108.05C121.462 107.988 123.405 108.454 125.125 109.4C126.175 114.825 127.75 123.25 131.35 127.275C136.6 134.2 143.45 134.55 147.925 127.125C147.956 127.066 147.971 127.001 147.968 126.935C147.966 126.868 147.946 126.804 147.91 126.748C147.874 126.692 147.825 126.647 147.766 126.616C147.707 126.586 147.641 126.572 147.575 126.575C146.2 126.707 144.813 126.554 143.501 126.123C142.188 125.693 140.979 124.996 139.95 124.075C136.125 120.325 137.25 114.25 139.2 111.325C142.55 106.325 145.825 108.25 151.175 103.825C150.796 109.425 151.031 115.051 151.875 120.6C152.47 123.868 153.774 126.965 155.696 129.673C157.619 132.382 160.112 134.635 163 136.275C171.325 140.525 181.975 135.175 183 121.825C185.025 116.275 190.3 114.575 193.75 119.9C194.625 124.325 196.55 130.2 200.775 133.125C202.157 133.972 203.737 134.438 205.357 134.478C206.977 134.517 208.579 134.128 210 133.35C205.275 157.7 198.8 180.975 174.425 176.8C174.372 176.789 174.317 176.79 174.264 176.802C174.212 176.814 174.162 176.838 174.119 176.871C174.077 176.905 174.042 176.947 174.017 176.995C173.992 177.043 173.978 177.096 173.975 177.15C173.975 179 173.475 188.475 173.3 191.225C173.297 191.316 173.325 191.405 173.38 191.478C173.434 191.55 173.512 191.602 173.6 191.625C175.593 192.089 177.5 192.865 179.25 193.925C181.088 196.381 182.484 199.139 183.375 202.075C186.625 217.5 169.75 225 157.5 214.05C155.2 202.65 150 186.55 143.325 162C141.825 156.45 137.225 142.675 124.075 135.65C123.985 135.624 123.89 135.624 123.8 135.65C122.475 135.975 115.475 137.25 111.3 133.15C107.125 129.05 109.025 108.05 119.5 108.05ZM210.95 130.85C205.7 134.85 200.6 132.925 197.675 126.7C196.097 123.376 195.188 119.775 195 116.1C194.902 112.147 195.019 108.191 195.35 104.25C196.225 96.175 200.025 87.7 208.15 87.7C210.195 87.7325 212.215 88.1569 214.1 88.95C217.9 90.975 218.825 99.825 218.35 108.425C217.175 127.2 212.675 129.55 210.95 130.85ZM419.775 378.35C419.775 376.7 419.775 372.875 419.575 367.375C421.95 371.175 423.8 375.279 425.075 379.575C424.752 380.886 424.202 382.129 423.45 383.25L419.775 378.35ZM419.3 354.95C422.205 358.72 424.468 362.944 426 367.45C426 369.325 425.825 373.7 425.6 376.425C424.051 372.252 422.003 368.281 419.5 364.6C419.45 361.825 419.375 358.6 419.3 355V354.95ZM426.05 363.575C424.381 359.548 422.086 355.81 419.25 352.5C419.1 346.125 418.95 338.825 418.75 330.95C419.773 331.312 420.65 331.996 421.25 332.9C424.989 342.717 426.625 353.21 426.05 363.7V363.575ZM183.925 361.85C186.425 356.7 189.6 357.625 194.375 360.625C200.134 364.23 205.389 368.585 210 373.575C210 376.075 210 378.575 209.85 381.225C206.877 378.893 203.607 376.968 200.125 375.5C199.963 375.46 199.791 375.487 199.648 375.573C199.505 375.66 199.402 375.8 199.363 375.962C199.323 376.125 199.349 376.297 199.436 376.44C199.523 376.583 199.663 376.685 199.825 376.725C203.328 378.534 206.673 380.633 209.825 383V389.2C207.346 387.649 204.585 386.604 201.7 386.125C201.602 386.106 201.501 386.109 201.405 386.133C201.308 386.158 201.218 386.203 201.142 386.266C201.065 386.33 201.003 386.409 200.96 386.499C200.918 386.59 200.896 386.688 200.896 386.787C200.896 386.887 200.918 386.985 200.96 387.076C201.003 387.166 201.065 387.245 201.142 387.308C201.218 387.372 201.308 387.417 201.405 387.442C201.501 387.466 201.602 387.469 201.7 387.45C204.513 388.215 207.205 389.368 209.7 390.875C209.9 391 209.85 390.35 209.7 395.575C203.507 396.173 197.26 395.878 191.15 394.7C184.425 393.575 181.325 390.525 180.45 384.175C179.312 376.594 180.525 368.846 183.925 361.975V361.85ZM417.725 422.175C419.313 423.172 421.181 423.629 423.05 423.475C423.197 423.446 423.33 423.366 423.426 423.25C423.521 423.134 423.573 422.988 423.573 422.837C423.573 422.687 423.521 422.541 423.426 422.425C423.33 422.309 423.197 422.229 423.05 422.2C422.038 422.274 421.022 422.131 420.07 421.782C419.117 421.433 418.25 420.885 417.525 420.175C414.4 417.35 412.925 412.525 411.125 408.025C405.525 393.925 400.65 381.15 401.125 367.475C401.125 363.85 404.075 363.325 407.05 365.3C410.025 367.275 426.2 389.35 428.875 392.525C428.984 392.668 429.146 392.761 429.324 392.784C429.502 392.808 429.682 392.759 429.825 392.65C429.968 392.541 430.061 392.379 430.084 392.201C430.108 392.023 430.059 391.843 429.95 391.7C428.2 389.2 426.325 386.7 424.55 384.375L424.675 384.225C425.775 382.925 427.175 381.125 427.625 369.1C428.2 349.1 426.675 343.9 423.325 333.95C421.979 330.217 420.909 326.39 420.125 322.5C419.675 320 418.975 315.95 421.6 314.325C424.225 312.7 426.375 316.225 428.225 317.8C451.7 341.275 453.225 380.1 459.6 414.625C451.175 417.325 431.725 429.2 424.6 433.4C422.812 431.09 420.387 429.352 417.625 428.4C417.5 426.45 417.5 424.375 417.725 422.3V422.175ZM427 452.875C427 452.875 421.875 442.25 420.075 438.325C426.75 433.975 447.45 421.45 457.2 417.4C460.8 415.9 464.325 414.125 467.9 412.625C470.075 418.1 472.075 423.675 473.75 428.45L427 452.875ZM434.05 72.675C434.65 43.4 409.85 19.6 380.075 19.6C350.3 19.6 325.525 43.4 326.1 72.675C327.5 142.9 432.65 142.925 434.05 72.675ZM333.525 72.675C334.75 12.1 425.425 12.075 426.625 72.675C427.15 97.9 405.75 118.425 380.075 118.425C354.4 118.425 333.025 97.9 333.525 72.675Z" fill="#212730"/>
<path d="M380 45.975C380 45.8225 379.939 45.6762 379.831 45.5684C379.724 45.4606 379.577 45.4 379.425 45.4C379.272 45.4 379.126 45.4606 379.018 45.5684C378.91 45.6762 378.85 45.8225 378.85 45.975C379.025 71.45 378.85 78.975 379.075 81.35C379.075 82.6 379.4 83.025 380.975 82.45C388.556 79.5115 396.388 77.269 404.375 75.75C404.531 75.7168 404.667 75.6232 404.754 75.4895C404.84 75.3559 404.871 75.1933 404.837 75.0375C404.804 74.8817 404.711 74.7454 404.577 74.6587C404.443 74.5719 404.281 74.5418 404.125 74.575C396.185 75.7359 388.391 77.7388 380.875 80.55C380.8 73.975 380.15 52.05 380 45.975ZM350.425 54.5C350.596 54.6233 350.806 54.6807 351.016 54.6616C351.226 54.6425 351.422 54.5482 351.568 54.3961C351.714 54.244 351.8 54.0443 351.81 53.8337C351.821 53.6232 351.755 53.4159 351.625 53.25C350.925 52.675 348.425 50.35 347.85 49.7C347.791 49.6376 347.72 49.5875 347.642 49.5525C347.563 49.5175 347.478 49.4982 347.393 49.4959C347.307 49.4936 347.221 49.5082 347.141 49.5389C347.061 49.5697 346.987 49.6159 346.925 49.675C346.863 49.7341 346.812 49.8049 346.777 49.8834C346.742 49.9618 346.723 50.0464 346.721 50.1323C346.719 50.2182 346.733 50.3037 346.764 50.384C346.795 50.4642 346.841 50.5376 346.9 50.6C347.5 51.275 349.8 53.9 350.425 54.5ZM359.475 45.175C359.563 45.3179 359.692 45.4314 359.845 45.5013C359.997 45.5711 360.167 45.5941 360.333 45.5673C360.499 45.5406 360.653 45.4653 360.776 45.351C360.9 45.2367 360.986 45.0884 361.025 44.925C361.15 44.45 361.025 44.275 360.225 43.2C359.531 42.2002 358.888 41.1655 358.3 40.1C357.875 39.275 356.675 39.95 357.075 40.775C357.751 42.306 358.554 43.7778 359.475 45.175ZM400 44.725C401.38 43.3226 402.682 41.8454 403.9 40.3C404.003 40.1678 404.054 40.0016 404.042 39.8341C404.029 39.6666 403.955 39.5097 403.833 39.394C403.711 39.2784 403.551 39.2124 403.383 39.2089C403.215 39.2054 403.052 39.2646 402.925 39.375C401.5 40.7094 400.148 42.1198 398.875 43.6C398.751 43.7537 398.688 43.9478 398.698 44.145C398.709 44.3422 398.792 44.5286 398.932 44.6682C399.071 44.8079 399.258 44.8909 399.455 44.9014C399.652 44.9119 399.846 44.8491 400 44.725ZM410.525 58.1C410.875 58.1 410.95 58.1 413.45 56.15L415 55C415.136 54.9138 415.232 54.7771 415.267 54.6201C415.302 54.463 415.274 54.2984 415.187 54.1625C415.101 54.0266 414.965 53.9305 414.807 53.8953C414.65 53.8601 414.486 53.8888 414.35 53.975C413.65 54.425 410.85 55.975 410 56.475C409.829 56.576 409.697 56.7323 409.626 56.9182C409.556 57.1041 409.551 57.3085 409.612 57.4977C409.673 57.6869 409.797 57.8497 409.963 57.9591C410.129 58.0686 410.327 58.1183 410.525 58.1ZM400.475 102.5C400.322 102.331 400.109 102.229 399.882 102.218C399.654 102.206 399.431 102.285 399.262 102.438C399.093 102.59 398.992 102.803 398.98 103.031C398.968 103.258 399.047 103.481 399.2 103.65C399.7 104.275 401.9 107 402.375 107.7C402.85 108.4 404.05 107.7 403.55 106.975C403.05 106.25 401.1 103.25 400.475 102.5ZM412.5 90.475C412.317 90.389 412.111 90.3687 411.915 90.4177C411.719 90.4666 411.546 90.5818 411.425 90.7436C411.305 90.9054 411.244 91.104 411.253 91.3056C411.262 91.5073 411.34 91.6996 411.475 91.85C411.725 92.075 415 94.675 415.275 94.975C415.402 95.0854 415.565 95.1446 415.733 95.1411C415.901 95.1376 416.061 95.0716 416.183 94.9559C416.305 94.8403 416.379 94.6834 416.392 94.5159C416.404 94.3484 416.354 94.1822 416.25 94.05C415.07 92.7865 413.818 91.5928 412.5 90.475ZM357.5 101.95C357.418 102.039 357.363 102.149 357.342 102.268C357.322 102.388 357.336 102.51 357.384 102.621C357.431 102.732 357.51 102.827 357.611 102.895C357.711 102.962 357.829 102.998 357.95 103C358.25 103 358.35 102.875 358.975 102.3C360.487 101.038 361.846 99.6028 363.025 98.025C363.625 97.15 362.275 96.1 361.6 96.95C360.331 98.6944 358.962 100.364 357.5 101.95ZM347.2 91.175C347.425 91.175 347.525 91.175 348.275 90.675C349.55 90 351.9 88.75 352.5 88.35C352.696 88.2373 352.838 88.0515 352.897 87.8335C352.956 87.6155 352.925 87.3831 352.812 87.1875C352.7 86.9919 352.514 86.8491 352.296 86.7905C352.078 86.7319 351.845 86.7623 351.65 86.875C350.75 87.35 347.15 89.9 346.875 90.05C346.755 90.1155 346.662 90.2199 346.609 90.3458C346.557 90.4717 346.549 90.6116 346.587 90.7426C346.625 90.8736 346.706 90.9878 346.818 91.0664C346.929 91.145 347.064 91.1833 347.2 91.175ZM343.55 69.225C342.887 69.225 342.251 69.4884 341.782 69.9572C341.313 70.4261 341.05 71.062 341.05 71.725C341.05 72.388 341.313 73.0239 341.782 73.4928C342.251 73.9616 342.887 74.225 343.55 74.225C344.213 74.225 344.849 73.9616 345.318 73.4928C345.787 73.0239 346.05 72.388 346.05 71.725C346.05 71.062 345.787 70.4261 345.318 69.9572C344.849 69.4884 344.213 69.225 343.55 69.225ZM379.825 38.325C380.488 38.325 381.124 38.0616 381.593 37.5928C382.062 37.1239 382.325 36.488 382.325 35.825C382.325 35.162 382.062 34.5261 381.593 34.0572C381.124 33.5884 380.488 33.325 379.825 33.325C379.162 33.325 378.526 33.5884 378.057 34.0572C377.588 34.5261 377.325 35.162 377.325 35.825C377.325 36.488 377.588 37.1239 378.057 37.5928C378.526 38.0616 379.162 38.325 379.825 38.325ZM380 106.325C379.337 106.325 378.701 106.588 378.232 107.057C377.763 107.526 377.5 108.162 377.5 108.825C377.5 109.488 377.763 110.124 378.232 110.593C378.701 111.062 379.337 111.325 380 111.325C380.663 111.325 381.299 111.062 381.768 110.593C382.237 110.124 382.5 109.488 382.5 108.825C382.5 108.162 382.237 107.526 381.768 107.057C381.299 106.588 380.663 106.325 380 106.325ZM418.675 75.2C419.338 75.2 419.974 74.9366 420.443 74.4678C420.912 73.9989 421.175 73.363 421.175 72.7C421.175 72.037 420.912 71.4011 420.443 70.9322C419.974 70.4634 419.338 70.2 418.675 70.2C418.012 70.2 417.376 70.4634 416.907 70.9322C416.438 71.4011 416.175 72.037 416.175 72.7C416.175 73.363 416.438 73.9989 416.907 74.4678C417.376 74.9366 418.012 75.2 418.675 75.2ZM314.725 365.325C314.141 365.325 313.582 365.557 313.169 365.969C312.757 366.382 312.525 366.942 312.525 367.525C312.525 368.108 312.757 368.668 313.169 369.081C313.582 369.493 314.141 369.725 314.725 369.725C315.308 369.725 315.868 369.493 316.281 369.081C316.693 368.668 316.925 368.108 316.925 367.525C316.925 366.942 316.693 366.382 316.281 365.969C315.868 365.557 315.308 365.325 314.725 365.325ZM314.725 376.3C314.141 376.3 313.582 376.532 313.169 376.944C312.757 377.357 312.525 377.917 312.525 378.5C312.525 379.083 312.757 379.643 313.169 380.056C313.582 380.468 314.141 380.7 314.725 380.7C315.308 380.7 315.868 380.468 316.281 380.056C316.693 379.643 316.925 379.083 316.925 378.5C316.925 377.917 316.693 377.357 316.281 376.944C315.868 376.532 315.308 376.3 314.725 376.3ZM389.175 253.575C389.715 253.517 390.214 253.262 390.577 252.858C390.94 252.454 391.141 251.93 391.141 251.387C391.141 250.845 390.94 250.321 390.577 249.917C390.214 249.513 389.715 249.258 389.175 249.2C388.635 249.258 388.136 249.513 387.773 249.917C387.41 250.321 387.209 250.845 387.209 251.387C387.209 251.93 387.41 252.454 387.773 252.858C388.136 253.262 388.635 253.517 389.175 253.575ZM389.825 234.825C390.408 234.825 390.968 234.593 391.381 234.181C391.793 233.768 392.025 233.208 392.025 232.625C392.025 232.042 391.793 231.482 391.381 231.069C390.968 230.657 390.408 230.425 389.825 230.425C389.241 230.425 388.682 230.657 388.269 231.069C387.857 231.482 387.625 232.042 387.625 232.625C387.625 233.208 387.857 233.768 388.269 234.181C388.682 234.593 389.241 234.825 389.825 234.825ZM389.825 221.25C390.365 221.192 390.864 220.937 391.227 220.533C391.59 220.129 391.791 219.605 391.791 219.062C391.791 218.52 391.59 217.996 391.227 217.592C390.864 217.188 390.365 216.933 389.825 216.875C389.285 216.933 388.786 217.188 388.423 217.592C388.06 217.996 387.859 218.52 387.859 219.062C387.859 219.605 388.06 220.129 388.423 220.533C388.786 220.937 389.285 221.192 389.825 221.25Z" fill="#212730"/>
</svg>
