<svg width="500" height="500" viewBox="0 0 500 500" fill="none" xmlns="http://www.w3.org/2000/svg">
<path d="M265.9 383.075C266.46 382.681 266.934 382.175 267.291 381.591C267.648 381.006 267.88 380.354 267.975 379.675L261.125 380.45C260.65 381.4 260.45 381.9 260.075 382.6C259.425 383.75 261.125 383.65 261.85 383.7C263.232 383.894 264.641 383.677 265.9 383.075ZM221.875 405.45L215 406.325C214.2 408.05 212.9 409.025 213.925 409.325C219.25 410.55 221.925 408.1 221.875 405.45ZM240.725 232.725C243.919 232.416 247.091 231.915 250.225 231.225C250.367 231.221 250.504 231.168 250.612 231.075C250.72 230.982 250.794 230.856 250.82 230.715C250.846 230.575 250.824 230.431 250.757 230.305C250.689 230.179 250.581 230.081 250.45 230.025C239.625 224.175 240.45 224.5 240.05 224.625C230.65 226.075 231.35 225.9 231.175 226.2C231.127 226.271 231.094 226.351 231.079 226.435C231.064 226.519 231.067 226.606 231.089 226.689C231.11 226.771 231.149 226.849 231.203 226.915C231.256 226.982 231.323 227.036 231.4 227.075L240.725 232.725ZM157.725 65C159.775 63.75 164.075 64.05 164.225 63.5C164.252 63.42 164.249 63.3329 164.217 63.2547C164.185 63.1766 164.125 63.1128 164.05 63.075C162.897 62.4494 161.573 62.2136 160.275 62.4028C158.978 62.5921 157.776 63.1962 156.85 64.125C156 65.35 156.8 65.9 157.725 65ZM169.375 65C170.257 65.3099 171.097 65.7299 171.875 66.25C172.647 66.6805 173.314 67.2785 173.825 68C173.869 68.0607 173.931 68.1067 174.002 68.132C174.072 68.1573 174.149 68.1607 174.222 68.1418C174.295 68.123 174.36 68.0827 174.41 68.0262C174.459 67.9697 174.491 67.8996 174.5 67.825C174.607 67.1764 174.454 66.5118 174.075 65.975C173.591 65.2112 172.865 64.6313 172.013 64.3278C171.162 64.0242 170.233 64.0144 169.375 64.3C169.304 64.3272 169.243 64.3752 169.2 64.4377C169.157 64.5002 169.135 64.5742 169.135 64.65C169.135 64.7258 169.157 64.7998 169.2 64.8623C169.243 64.9248 169.304 64.9728 169.375 65ZM161.3 69.4C161.368 68.6416 161.493 67.8894 161.675 67.15C161.75 66.8417 161.701 66.5161 161.537 66.2443C161.373 65.9725 161.108 65.7768 160.8 65.7C160.489 65.634 160.165 65.684 159.889 65.8406C159.612 65.9972 159.403 66.2495 159.3 66.55C159.088 67.4704 158.954 68.4071 158.9 69.35C158.9 69.6664 159.022 69.9706 159.241 70.199C159.46 70.4273 159.759 70.5621 160.075 70.575C160.232 70.5783 160.389 70.5506 160.536 70.4933C160.683 70.436 160.817 70.3504 160.931 70.2413C161.045 70.1322 161.136 70.0017 161.199 69.8574C161.262 69.713 161.297 69.5576 161.3 69.4ZM170 68.35C169.921 69.0575 169.796 69.759 169.625 70.45C168.95 72.125 171.9 72.575 171.9 71.075C171.97 70.368 172.087 69.6664 172.25 68.975C172.975 67.325 170 66.775 170 68.35ZM166.375 81.625C165.992 81.332 165.55 81.1265 165.079 81.0228C164.608 80.9192 164.12 80.9199 163.65 81.025C160.6 81.35 161.15 81.35 160.3 81.025C160.196 80.9953 160.087 80.9884 159.98 81.0047C159.874 81.021 159.772 81.0602 159.681 81.1195C159.591 81.1789 159.515 81.257 159.458 81.3485C159.401 81.4401 159.364 81.5429 159.35 81.65C159.273 82.3865 159.323 83.1308 159.5 83.85C159.5 86.1 161.425 88.325 163.625 87.475C165.125 86.925 165.175 84.975 164.375 85.4C163.967 85.4633 163.55 85.4438 163.15 85.3426C162.749 85.2414 162.373 85.0606 162.044 84.8109C161.715 84.5613 161.44 84.2479 161.235 83.8895C161.03 83.5311 160.899 83.1351 160.85 82.725C162.024 83.0792 163.217 83.3631 164.425 83.575C167.05 84.15 166.675 81.925 166.375 81.625ZM165.725 78.3C165.161 78.3035 164.599 78.3706 164.05 78.5C163.175 78.75 163.1 79.85 165.875 79.85C166.806 79.8988 167.73 79.6634 168.525 79.175C170.15 77.975 169.55 75.9 169.1 74.375C168.341 71.9524 168.094 69.3982 168.375 66.875C168.725 65.65 166.95 66.1 166.95 67.525C166.758 70.058 167.055 72.6041 167.825 75.025C168.029 75.4623 168.118 75.9446 168.083 76.4261C168.048 76.9075 167.89 77.3719 167.625 77.775C167.062 78.144 166.397 78.3276 165.725 78.3ZM115.85 40.475C115.903 40.5057 115.963 40.5219 116.025 40.5219C116.086 40.5219 116.147 40.5057 116.2 40.475C119.1 39.175 119.375 38.8 122.35 37.325C123.351 39.5642 124.758 41.5986 126.5 43.325C127.025 42.25 127.6 41.2 128.15 40.175C131.651 33.5481 137.419 28.4015 144.4 25.675C142.562 22.7206 139.792 20.4628 136.528 19.2585C133.264 18.0542 129.691 17.972 126.375 19.025C124.373 20.307 122.778 22.1334 121.777 24.2898C120.776 26.4463 120.411 28.8434 120.725 31.2C120.866 32.5842 121.151 33.9499 121.575 35.275C119.361 36.2553 117.292 37.5339 115.425 39.075C115.308 39.1762 115.222 39.3093 115.179 39.4581C115.136 39.6069 115.137 39.7651 115.182 39.9133C115.227 40.0616 115.314 40.1936 115.432 40.2933C115.551 40.393 115.696 40.4561 115.85 40.475ZM330 140C329.25 140.45 329.05 140.175 328.4 140.675C327.75 141.175 328.4 141.875 329.175 141.875C329.707 141.822 330.224 141.669 330.7 141.425C331.315 141.01 331.822 140.453 332.175 139.8C332.863 138.282 333.08 136.593 332.8 134.95C332.791 134.84 332.755 134.733 332.696 134.64C332.636 134.547 332.555 134.47 332.459 134.416C332.362 134.361 332.254 134.332 332.144 134.329C332.033 134.326 331.924 134.351 331.825 134.4C330.086 135.359 328.281 136.195 326.425 136.9C325.825 137.175 326.225 137.975 326.75 137.925H326.95C328.552 137.483 330.103 136.871 331.575 136.1C331.575 137.119 331.38 138.129 331 139.075C330.759 139.47 330.412 139.79 330 140ZM234.55 232.85C232.523 232.925 230.502 233.125 228.5 233.45C216.525 235.35 215.475 235.95 209.325 237.175C208.9 237.175 208.525 237.35 208.725 237.9C208.925 238.45 209.325 238.375 209.75 238.3C216.9 236.8 217.45 236.425 219.75 236C228.675 234.325 231.725 234.525 234.475 233.95C234.621 233.96 234.765 233.912 234.875 233.815C234.985 233.719 235.052 233.583 235.062 233.438C235.072 233.292 235.024 233.148 234.928 233.038C234.832 232.927 234.696 232.86 234.55 232.85ZM213.05 232.5C212.2 232.5 212.35 233.375 213.05 233.45H213.875C223.175 231.5 222.125 232.025 224.1 231.35C224.239 231.35 224.373 231.295 224.471 231.196C224.57 231.098 224.625 230.964 224.625 230.825C224.625 230.686 224.57 230.552 224.471 230.454C224.373 230.355 224.239 230.3 224.1 230.3C223.162 230.337 222.231 230.48 221.325 230.725C216.925 231.625 217.5 231.475 213.05 232.5ZM215.175 228.3C216.725 228.05 218.275 227.825 219.875 227.425C220.005 227.386 220.115 227.3 220.186 227.184C220.256 227.069 220.281 226.931 220.257 226.798C220.232 226.665 220.159 226.545 220.051 226.463C219.944 226.38 219.81 226.34 219.675 226.35C216.658 226.696 213.662 227.205 210.7 227.875C204.95 229.15 206.475 228.725 203.65 229.4C203.042 229.46 202.44 229.569 201.85 229.725C201.721 229.728 201.597 229.773 201.497 229.855C201.397 229.936 201.328 230.049 201.3 230.175C201.125 230.6 201.3 230.825 201.75 230.825C201.75 230.4 201.75 230.225 201.75 230.825C203.35 230.8 204.2 230 215.175 228.3ZM196.25 225.6C195.425 225.75 195.55 226.525 196.25 226.675C197.3 226.675 212.175 223.85 220.475 222.45C223.157 222.033 225.811 221.457 228.425 220.725C229.125 220.725 228.95 219.475 228.425 219.6C225.925 219.95 223.425 220.475 220.925 221.05C217.925 221.7 201.625 224.55 196.25 225.6ZM191.475 222.85C191.396 222.867 191.325 222.912 191.275 222.976C191.224 223.039 191.198 223.119 191.2 223.2V223.4C191.202 223.454 191.217 223.507 191.242 223.555C191.266 223.603 191.301 223.645 191.344 223.679C191.387 223.712 191.436 223.736 191.489 223.748C191.542 223.76 191.597 223.761 191.65 223.75C196.15 222.875 210.05 219.8 214.6 219.15C217.1 218.775 219.75 218.4 222.1 217.825C222.192 217.823 222.283 217.796 222.362 217.748C222.441 217.7 222.506 217.631 222.55 217.55C222.775 217.1 222.375 216.6 222.075 216.7C219.639 216.873 217.223 217.25 214.85 217.825C208.25 218.95 198.8 220.9 191.475 222.85ZM187.325 218.55C187.236 218.562 187.156 218.608 187.1 218.678C187.045 218.748 187.018 218.836 187.025 218.925V219.075C187.011 219.141 187.011 219.209 187.025 219.275C187.055 219.328 187.099 219.372 187.152 219.402C187.204 219.433 187.264 219.449 187.325 219.45C189.425 219.45 208.275 216.05 210.325 215.75C213.068 215.37 215.788 214.844 218.475 214.175C219.175 214.175 219.075 212.875 218.475 212.975C214.075 213.7 223.825 212.15 187.325 218.55ZM198.65 211.95C182.575 215.25 183.65 214.6 183.65 215.45C183.65 215.529 183.675 215.605 183.721 215.669C183.767 215.733 183.832 215.781 183.906 215.806C183.981 215.831 184.062 215.831 184.137 215.808C184.212 215.784 184.278 215.738 184.325 215.675C209 211.375 209.325 211.475 213.275 210.45C214 210.45 213.9 209.175 213.275 209.25C208.3 209.775 203.525 210.95 198.65 211.95ZM116.4 257.975C123.05 257.575 124.675 257.975 125.025 257.775L129 265C129.175 265.325 129.675 265.575 129.975 265.325L178.575 258.15C178.715 258.142 178.85 258.099 178.968 258.025C179.087 257.95 179.184 257.847 179.252 257.724C179.319 257.602 179.354 257.464 179.354 257.324C179.354 257.185 179.318 257.047 179.25 256.925L172.1 244.125C171.683 243.332 171.032 242.686 170.237 242.275C169.441 241.864 168.538 241.707 167.65 241.825C119.7 248 122.65 247.2 122.1 247.5C121.785 247.672 121.515 247.915 121.311 248.211C121.107 248.506 120.975 248.845 120.925 249.2C120.125 250.325 115.925 256.7 115.75 256.85C115.684 256.964 115.649 257.093 115.649 257.225C115.649 257.357 115.684 257.486 115.75 257.6C115.816 257.714 115.911 257.809 116.025 257.875C116.139 257.94 116.268 257.975 116.4 257.975ZM123.1 249C124.575 248.725 131.775 247.9 167.45 243.575C169.375 243.35 170.225 243.95 170.775 244.925L177.3 256.625L130.2 263.65L122.825 250.25C122.75 250 122.075 249.175 123.1 249ZM121.2 250.825L124.2 256.275H117.775C119.85 253.1 118.75 254.625 121.2 250.825Z" fill="black"/>
<path d="M133.7 255.15C139.125 255.077 144.542 254.702 149.925 254.025C155.075 253.525 160.525 253.275 165.6 252.5C166.45 252.5 166.75 251.475 166.3 250.75C166.209 250.589 166.073 250.459 165.908 250.375C165.744 250.29 165.559 250.256 165.375 250.275C161.75 250.45 158.075 250.9 154.525 251.325C145.85 252.35 142.6 252.275 133.575 254C133.453 254.048 133.35 254.136 133.282 254.248C133.215 254.36 133.185 254.492 133.2 254.623C133.214 254.753 133.27 254.875 133.361 254.971C133.451 255.066 133.57 255.129 133.7 255.15ZM180 294.6C180.228 294.6 180.447 294.511 180.61 294.353C180.773 294.194 180.868 293.978 180.875 293.75C180.875 290.125 180.875 286.4 180.625 282.9C180.625 282.734 180.559 282.575 180.442 282.458C180.325 282.341 180.166 282.275 180 282.275C179.834 282.275 179.675 282.341 179.558 282.458C179.441 282.575 179.375 282.734 179.375 282.9C179.025 286.5 179.15 290.15 179.15 293.775C179.156 293.996 179.249 294.206 179.408 294.36C179.566 294.514 179.779 294.6 180 294.6ZM79.275 222.625C80.0169 224.101 81.157 225.34 82.5664 226.201C83.9758 227.063 85.5982 227.513 87.25 227.5H88.25C89.366 227.503 90.4714 227.283 91.5016 226.854C92.5318 226.425 93.4661 225.794 94.25 225C95.374 223.537 96.121 221.82 96.425 220C97.4646 218.088 98.2145 216.032 98.65 213.9C99.3922 212.139 99.7338 210.234 99.65 208.325C99.6013 207.567 99.2944 206.848 98.7804 206.289C98.2664 205.729 97.5763 205.363 96.825 205.25C96.2457 205.22 95.669 205.346 95.1546 205.614C94.6403 205.882 94.2071 206.283 93.9 206.775C91.6969 205.764 89.2816 205.301 86.8608 205.428C84.44 205.554 82.0859 206.265 80 207.5C79.336 207.831 78.7618 208.317 78.3265 208.918C77.8912 209.519 77.6076 210.216 77.5 210.95C77.505 211.373 77.5987 211.79 77.775 212.175C77.5105 215.726 78.0223 219.292 79.275 222.625ZM96.95 206.875C98 207.225 98.175 209.025 97.9 210.2C97.625 211.375 97.4 212.05 97.125 213C96.525 215.025 97.125 214.25 96.475 209.675C96.4866 209.523 96.4422 209.372 96.35 209.25C96.1839 208.603 95.8162 208.025 95.3 207.6C95.9 207 96.35 206.675 96.95 206.875ZM91.2 207.475C92.4 207.775 94.425 208.275 95 209.4C95.575 210.525 94.55 211.675 93.45 212.4L92.9 212.725H92.7C91.0825 211.552 89.1356 210.92 87.1375 210.92C85.1394 210.92 83.1925 211.552 81.575 212.725C80.9348 212.419 80.331 212.041 79.775 211.6C79.6005 211.475 79.4653 211.303 79.3856 211.103C79.3059 210.904 79.2848 210.686 79.325 210.475C79.7 208.975 85.125 205.925 91.2 207.5V207.475ZM82.2 215.175C84.1981 215.965 86.363 216.24 88.4951 215.973C90.6272 215.707 92.6579 214.908 94.4 213.65C94.7444 213.399 95.0552 213.105 95.325 212.775C95.62 216.086 95.123 219.419 93.875 222.5C93.383 223.415 92.6655 224.189 91.7905 224.749C90.9155 225.309 89.9119 225.637 88.875 225.7C87.4246 225.935 85.9379 225.776 84.5701 225.239C83.2023 224.702 82.0039 223.808 81.1 222.65C79.6678 219.897 78.9541 216.827 79.025 213.725C79.9959 214.38 81.0688 214.87 82.2 215.175ZM146.45 405C146.391 404.835 146.282 404.693 146.139 404.592C145.996 404.491 145.825 404.437 145.65 404.437C145.475 404.437 145.304 404.491 145.161 404.592C145.018 404.693 144.909 404.835 144.85 405C144.35 408.025 144.7 407.925 144.3 410.5C144.012 412.908 143.578 415.295 143 417.65C142.954 417.809 142.972 417.98 143.052 418.126C143.132 418.271 143.266 418.379 143.425 418.425C143.584 418.471 143.755 418.453 143.901 418.373C144.046 418.293 144.154 418.159 144.2 418C144.945 415.902 145.546 413.755 146 411.575C146.499 409.421 146.651 407.202 146.45 405ZM166 227.725C166.066 227.767 166.144 227.786 166.223 227.781C166.301 227.777 166.376 227.747 166.437 227.697C166.497 227.648 166.541 227.58 166.561 227.504C166.582 227.429 166.578 227.348 166.55 227.275C166.536 226.96 166.614 226.647 166.775 226.375C166.942 226.083 167.177 225.834 167.459 225.652C167.742 225.469 168.065 225.357 168.4 225.325C168.473 225.312 168.54 225.278 168.593 225.226C168.646 225.175 168.683 225.109 168.699 225.037C168.715 224.965 168.71 224.89 168.683 224.821C168.657 224.752 168.61 224.693 168.55 224.65C164.418 221.595 160.128 218.758 155.7 216.15C155.44 216.015 155.14 215.977 154.854 216.04C154.569 216.104 154.314 216.266 154.135 216.498C153.957 216.731 153.865 217.018 153.877 217.311C153.889 217.604 154.003 217.883 154.2 218.1C157.964 221.51 161.903 224.723 166 227.725Z" fill="black"/>
<path d="M167.7 228.825C167.7 228.975 167.7 228.825 168.8 229.8C169.582 230.469 170.418 231.071 171.3 231.6C171.223 231.729 171.11 231.834 170.975 231.9C169.575 232.7 167.9 230.5 166.725 229.4C166.05 228.925 164.675 228.325 163.95 229.15C163.872 229.235 163.819 229.339 163.795 229.451C163.77 229.563 163.776 229.68 163.812 229.789C163.848 229.899 163.911 229.997 163.997 230.073C164.083 230.15 164.187 230.202 164.3 230.225H165.425C166.825 231.05 166.775 231.8 168.65 232.725C169.136 232.936 169.664 233.032 170.192 233.006C170.721 232.98 171.237 232.832 171.7 232.575C172.009 232.386 172.254 232.107 172.4 231.775C172.861 231.987 173.337 232.162 173.825 232.3C174.096 232.292 174.361 232.214 174.593 232.074C174.826 231.934 175.018 231.736 175.151 231.499C175.284 231.263 175.354 230.996 175.354 230.724C175.354 230.453 175.284 230.186 175.15 229.95C173.771 228.231 172.007 226.861 170 225.95C169.655 225.974 169.318 226.069 169.011 226.229C168.705 226.39 168.435 226.612 168.219 226.882C168.002 227.153 167.845 227.465 167.755 227.799C167.666 228.134 167.647 228.483 167.7 228.825Z" fill="black"/>
<path d="M486.3 160.925C484.85 159.368 482.989 158.253 480.932 157.708C478.874 157.164 476.705 157.213 474.675 157.85C469.711 159.549 465.198 162.353 461.475 166.05C450.05 176.05 441.625 191.05 436.775 205.225V204.3C441.908 185.735 448.435 167.583 456.3 150C458.8 144.625 462.025 139.625 464.125 134.1C465.75 129.75 466.975 123.625 463.6 119.1C463.043 118.219 462.271 117.493 461.357 116.99C460.444 116.487 459.418 116.224 458.375 116.225C456.016 116.816 453.938 118.213 452.5 120.175C449.105 124.126 446.553 128.728 445 133.7C442.983 139.685 441.371 145.799 440.175 152C437.68 165.284 436.01 178.71 435.175 192.2C432.911 179.518 429.038 167.176 423.65 155.475C421.366 150.122 418.408 145.081 414.85 140.475C412.95 138.1 407.825 132.7 402.35 132.7C397.35 132.7 397.35 139.75 398.725 144.5C401.65 154.5 410.95 157.225 420.5 172C427.841 183.552 431.982 196.847 432.5 210.525C430.562 210.051 428.601 209.676 426.625 209.4C423.058 202.707 417.133 197.576 410 195C409.103 194.528 408.121 194.243 407.111 194.161C406.101 194.08 405.085 194.203 404.125 194.525C397.825 181.3 387.425 166.025 375.55 157.65C374.5 156.425 369.15 150.15 367.775 150.8C365.783 152.683 363.546 154.289 361.125 155.575C361.225 158.463 361.95 161.294 363.25 163.875C356.975 164.975 346.975 165.425 341.125 163.05C339.9 162.525 339.325 162.25 339.575 161.175C340.068 159.143 340.914 157.214 342.075 155.475C342.5 155.025 342.975 155 343.75 155.05C344.525 155.1 342.3 155.05 359.6 155.05C360.425 155.05 360.775 154.9 360.775 154.525C360.775 154.15 360.175 154.025 359.675 154L344.025 153.3C344.091 152.169 343.921 151.037 343.525 149.975C343.3 148.6 342.6 148.125 341.575 148.2C341.325 148.2 332.775 148 328.875 144.275C326.953 142.144 325.595 139.565 324.925 136.775C323.218 130.788 322.825 124.503 323.775 118.35C323.775 116.55 324 114.775 324.175 112.975C327.425 125.475 337.35 134.425 346.875 143.175C353.275 149 354.375 148.175 355.7 149.95C356.55 151.725 358.875 151.25 360.7 150.325C362.977 149.507 365.15 148.424 367.175 147.1C367.643 146.67 368.055 146.183 368.4 145.65C372.7 139.525 377.2 134.7 379 127.45C380.325 121.625 387.075 91.625 370 83.3C364.46 80.1273 358.23 78.3511 351.85 78.125C347.888 78.0274 343.95 78.7773 340.301 80.3247C336.652 81.8721 333.376 84.1812 330.692 87.0974C328.008 90.0136 325.977 93.4696 324.737 97.234C323.497 100.998 323.075 104.984 323.5 108.925C322.768 112.865 322.292 116.848 322.075 120.85C320.95 122.25 317.825 126.6 317.075 127.875C316.92 128.122 316.823 128.401 316.792 128.691C316.761 128.981 316.796 129.275 316.894 129.549C316.993 129.824 317.153 130.072 317.362 130.276C317.571 130.48 317.823 130.633 318.1 130.725C319.454 131.107 320.845 131.341 322.25 131.425C322.624 136.504 324.612 141.331 327.925 145.2C331.05 148.6 337.35 149.65 341.95 149.65C342.374 150.803 342.594 152.021 342.6 153.25C342.032 153.305 341.497 153.542 341.075 153.925C340.195 154.857 339.522 155.965 339.1 157.175C338.624 158.294 338.207 159.437 337.85 160.6C337.685 161.056 337.616 161.541 337.65 162.025C326.282 164.767 315.935 170.7 307.825 179.125L168.25 186.95C167.839 186.601 167.477 186.197 167.175 185.75C166.871 185.108 166.701 184.41 166.675 183.7C167.182 178.599 168.419 173.598 170.35 168.85C174.632 171.558 179.131 173.907 183.8 175.875C185.853 176.947 188.051 177.713 190.325 178.15C193.014 178.228 195.7 177.917 198.3 177.225C219.628 171.871 238.359 159.112 251.15 141.225C253.65 141.225 255.875 143.35 258.65 143.35C258.987 143.39 259.33 143.352 259.65 143.24C259.971 143.127 260.262 142.942 260.5 142.7C260.742 142.421 260.889 142.072 260.921 141.703C260.952 141.335 260.866 140.966 260.675 140.65C260.497 140.293 260.279 139.958 260.025 139.65H261C261.553 139.722 262.112 139.589 262.573 139.275C263.034 138.962 263.364 138.49 263.5 137.95C263.725 136.825 262.8 136.05 262.125 135.45L262.9 135.2C264.275 134.65 264.35 133.2 263.25 132.15C261.209 130.581 258.764 129.627 256.2 129.4C257.2 128.627 257.884 127.516 258.125 126.275C258.125 124.075 256.775 123.775 255.625 124.575C255 124.825 254.325 125.175 253.725 125.475C251.449 126.317 249.277 127.416 247.25 128.75C246.249 129.549 245.402 130.523 244.75 131.625C244.648 131.578 244.537 131.554 244.425 131.554C244.313 131.554 244.202 131.578 244.1 131.625C243.125 132.175 245.2 133.025 234.825 137.075C219.05 143.25 213.35 141.775 197.775 150C189.3 135.15 184.575 117.225 162.775 102.5C162.662 102.432 162.532 102.395 162.4 102.395C162.268 102.395 162.138 102.432 162.025 102.5C159.253 99.0576 155.375 96.6813 151.05 95.775C150.934 95.6897 150.794 95.6437 150.65 95.6437C150.506 95.6437 150.366 95.6897 150.25 95.775C150.221 95.8814 150.221 95.9936 150.25 96.1C149.875 95.875 149.45 95.7 149.075 95.45C149.097 94.0166 149.324 92.5938 149.75 91.225C151.928 92.6912 154.455 93.5538 157.075 93.725C160.136 94.1508 163.25 93.5156 165.9 91.925C168.258 90.1229 170.195 87.8278 171.575 85.2C175.492 78.5442 177.74 71.0386 178.125 63.325C179.818 59.5674 180.874 55.5543 181.25 51.45C181.6 45 178.75 41.45 174.45 37.475C164.2 27.85 148.6 23.7 136.95 33.3C133.792 35.9798 131.241 39.3005 129.465 43.0418C127.689 46.7831 126.73 50.8594 126.65 55C126.35 62.975 129.15 71.35 131.225 79.15C130.517 83.0945 129.574 86.9932 128.4 90.825C128 92.075 127.925 91.25 123.4 92.475C122.475 91.625 121.9 91.85 117.275 92.475C116.661 92.4706 116.066 92.6924 115.605 93.0981C115.144 93.5039 114.849 94.0652 114.775 94.675C109.908 95.8302 105.341 98.0028 101.375 101.05C88.9513 102.131 77.4456 108.036 69.3249 117.5C58.6999 130.275 56.1749 147.35 55.1499 162.5C54.4003 172.79 54.175 183.112 54.4749 193.425C21.4499 195.275 14.4749 195.625 12.9999 195.775C12.3499 195.775 12.2999 196.475 12.3749 196.875C12.1635 199.085 12.0883 201.306 12.1499 203.525C12.0249 204.3 12.2999 204.6 12.9749 204.85L18.3499 208.7C17.8249 214.2 16.1999 327.125 16.3499 333.2C16.3607 333.433 16.455 333.655 16.6156 333.825C16.7762 333.995 16.9924 334.101 17.2249 334.125L23.7249 340C23.795 340.069 23.8892 340.107 23.9874 340.107C24.0856 340.107 24.1798 340.069 24.2499 340L24.5749 339.625C27.7155 340.012 30.9016 339.774 33.9499 338.925C34.3749 339.075 34.7249 338.925 34.7999 338.65C35.4775 337.808 36.1117 336.932 36.6999 336.025C38.9212 333.566 41.9239 331.95 45.1999 331.45C49.1532 330.792 53.2082 331.127 56.9999 332.425C69.7749 337.9 81.4999 349.725 89.4999 361.25C90.2749 364.225 90.2249 370 90.5499 371.975C92.4499 383.3 91.7999 377.825 105.55 393.075C111.625 410.575 111.175 418.95 112.4 425.175C112.426 425.282 112.473 425.383 112.54 425.471C112.606 425.559 112.69 425.633 112.787 425.687C112.883 425.741 112.989 425.774 113.099 425.785C113.209 425.796 113.32 425.784 113.425 425.75L121.925 433.475C122.3 433.825 123.1 435.2 124.725 433.475L131.55 432.1C131.775 432.1 132 431.525 132 431.3C132.3 425.3 132.55 419.375 132.75 413.45L134.075 414.4C135.923 416.642 138.038 418.649 140.375 420.375C140.795 420.963 141.419 421.373 142.125 421.525C145.25 421.75 147.7 421.275 156.3 418.85C158.286 418.582 160.161 417.779 161.725 416.525C164.65 413.4 160.725 408.6 159.225 405.675C157.725 402.75 156.875 400.025 155.85 397.15C156.976 397.699 158.158 398.126 159.375 398.425C160.35 398.65 163.775 398.85 163.525 398.825C163.632 398.794 163.727 398.734 163.8 398.65H163.975C164.041 398.536 164.075 398.407 164.075 398.275C164.075 398.143 164.041 398.014 163.975 397.9C161.475 392.675 159.475 393.1 152.675 374.475C156.273 376.997 160.65 378.157 165.025 377.75C168.275 377.75 173.4 377.4 173.425 374.15C173.656 374.145 173.878 374.056 174.048 373.9C174.218 373.743 174.326 373.53 174.35 373.3L175.1 366C177.098 367.421 178.897 369.102 180.45 371C182.49 372.792 184.868 374.158 187.444 375.016C190.021 375.875 192.743 376.21 195.45 376C198.041 376.168 200.63 375.641 202.95 374.475C204.4 373.1 204.375 370.975 201.7 369.225C200.825 368.675 199.2 367.35 197.5 366.075C193.725 363.125 193.775 363.175 193.3 363.3C190.5 360.369 187.911 357.245 185.55 353.95C184.912 353.229 184.442 352.375 184.175 351.45C183.825 348.525 186.525 338.95 187.3 335.95C189.502 337.685 191.944 339.091 194.55 340.125C199.55 341.65 204.55 339.8 209.4 337.975C210.165 337.788 210.843 337.348 211.325 336.725C211.677 336.031 211.799 335.243 211.675 334.475C211.05 323.775 210.425 312.4 209.8 301.675L227.575 299.55C226.272 306.709 225.636 313.973 225.675 321.25C225.675 334.975 224.55 394.175 222.6 406.475C222.314 407.636 221.623 408.656 220.65 409.35C215.5 412.6 209.925 409.875 211.85 407.95C212.225 407.45 212.6 406.9 213.025 406.425C211.875 406.6 211.25 406.775 210 407C208.531 407.257 207.144 407.857 205.95 408.75C205.608 409.072 205.335 409.459 205.146 409.888C204.957 410.318 204.856 410.781 204.85 411.25C204.89 411.696 205.019 412.129 205.23 412.524C205.44 412.919 205.727 413.268 206.075 413.55C208.46 415.153 211.149 416.251 213.975 416.775C214.275 416.775 221.475 418.3 222.05 418.35C226.111 419.061 230.253 419.188 234.35 418.725C235.13 418.675 235.874 418.38 236.476 417.882C237.078 417.383 237.506 416.707 237.7 415.95C238.153 414.027 238.322 412.047 238.2 410.075L238.35 408.925C245.125 377 264.55 348.775 266.65 315.65L272.25 317.7C271.85 332.5 271.975 357.2 270.95 371.275C270.423 375.369 269.223 379.347 267.4 383.05C266.91 383.683 266.28 384.195 265.561 384.546C264.841 384.897 264.051 385.078 263.25 385.075C261.825 385.003 260.406 384.845 259 384.6C256.9 384.175 258.275 382.55 259 380.725C258.05 380.804 257.106 380.946 256.175 381.15C254.692 381.385 253.292 381.987 252.1 382.9C251.761 383.198 251.492 383.566 251.311 383.98C251.131 384.393 251.043 384.841 251.055 385.292C251.067 385.743 251.178 386.185 251.38 386.589C251.582 386.992 251.871 387.346 252.225 387.625C254.61 389.228 257.299 390.326 260.125 390.85C260.375 390.85 267.625 392.375 268.2 392.425C272.271 393.123 276.419 393.249 280.525 392.8C281.303 392.753 282.045 392.458 282.643 391.959C283.242 391.46 283.665 390.782 283.85 390.025C284.348 388.109 284.526 386.124 284.375 384.15C284.457 383.15 284.728 382.174 285.175 381.275C284.75 399.85 284.275 422.1 284.275 426.625C284.34 428.632 285.181 430.536 286.622 431.935C288.063 433.335 289.991 434.12 292 434.125H292.575C294.534 434.079 296.397 433.269 297.765 431.867C299.134 430.466 299.9 428.584 299.9 426.625C300.55 417.575 301.3 373.625 301.425 367C314.975 374.5 332.425 379.225 354.3 379.75C358.8 379.875 357.35 379.9 361.375 380.025C361.225 389.475 359.875 467.175 359.875 474.275C359.933 476.28 360.77 478.184 362.207 479.584C363.644 480.984 365.569 481.769 367.575 481.775H368.1C370.089 481.775 371.997 480.985 373.403 479.578C374.81 478.172 375.6 476.264 375.6 474.275C376.225 465.2 377.025 388.525 377.1 379.575C383.448 379.09 389.716 377.857 395.775 375.9C395.425 384.05 394.375 409.65 394.375 416.475C394.427 418.474 395.254 420.374 396.682 421.773C398.109 423.173 400.026 423.963 402.025 423.975C403.047 424.036 404.071 423.888 405.033 423.539C405.996 423.189 406.877 422.647 407.622 421.944C408.366 421.241 408.959 420.394 409.364 419.453C409.769 418.512 409.977 417.499 409.975 416.475C410.625 407.35 411.75 372.3 411.925 366.825C412.768 366.122 413.562 365.362 414.3 364.55C415.876 363.053 417.269 361.375 418.45 359.55C421.485 360.283 424.605 360.603 427.725 360.5C434.2 360.5 446.575 359.775 450.825 354.875C451.684 353.43 452.189 351.802 452.3 350.125C455.917 347.966 458.761 344.72 460.425 340.85C462.353 336.577 463.722 332.073 464.5 327.45C465.656 319.791 466.067 312.038 465.725 304.3C466.364 302.837 466.544 301.215 466.24 299.648C465.937 298.081 465.164 296.643 464.025 295.525C461.927 293.901 459.557 292.665 457.025 291.875C455.85 289.575 454.525 290.225 453.8 289.8C452.05 289.1 452.55 287.775 451.1 286.725C450.428 286.272 449.656 285.989 448.85 285.9C448.142 285.95 447.432 285.95 446.725 285.9C446.225 285.675 445.75 284.75 445.3 284.25C443.428 282.305 440.872 281.166 438.175 281.075C437.488 280.963 436.787 280.963 436.1 281.075C435.863 281.143 435.659 281.294 435.525 281.5C434.99 281.01 434.383 280.605 433.725 280.3C433.61 280.251 433.487 280.226 433.362 280.226C433.238 280.226 433.115 280.251 433 280.3C433 278.525 433.175 276.725 433.275 274.925C434.326 268.674 436.566 262.682 439.875 257.275C441.947 253.713 444.856 250.709 448.35 248.525C452.275 246.375 456.525 247.7 460.85 246.525C463.75 245.725 466.075 243.35 464.8 240.575C463.525 237.8 459.8 236.425 456.675 236.15C448.975 235.4 442.5 242.5 440 245.425C433.5 254.05 435.275 259.325 435.6 246.225C437.637 239.326 440.678 232.764 444.625 226.75C445.566 225.625 446.253 224.31 446.637 222.894C447.021 221.478 447.094 219.996 446.85 218.55C446.625 217.35 445.5 215.075 440.85 213.125C444.415 203.453 450.386 194.848 458.2 188.125C462.33 184.238 467.366 181.445 472.85 180C477.639 178.866 481.988 176.344 485.35 172.75C486.791 171.16 487.665 169.138 487.837 166.999C488.009 164.86 487.468 162.725 486.3 160.925ZM444.125 141.7C445.37 136.399 447.277 131.276 449.8 126.45C452.75 121.15 457.875 114.825 461.95 119.35C468.9 127.05 459 140.6 454.3 150.55C447.225 166.279 441.415 182.548 436.925 199.2C440.075 176.7 447.625 146.925 458.45 127.05C458.8 126.375 457.8 126.075 457.55 126.525C446.876 147.271 439.849 169.698 436.775 192.825C438.575 173.4 439.05 160.575 444.125 141.7ZM318.6 129.625C318.433 129.633 318.268 129.579 318.139 129.472C318.01 129.366 317.925 129.216 317.9 129.05C317.983 128.562 318.209 128.109 318.55 127.75C318.55 127.75 321.05 123.925 321.775 122.95C321.708 125.326 321.766 127.705 321.95 130.075C320.725 130 319.725 130 318.6 129.625ZM426.1 179.275C420.675 168 415.35 162.5 406.25 153.75C401.025 148.75 398.75 143.5 399.3 138.125C399.5 136.1 399.95 134.15 401.95 133.975C403.483 133.892 405.005 134.266 406.325 135.05C408.674 136.217 410.792 137.801 412.575 139.725C416.155 143.884 419.111 148.541 421.35 153.55C430.154 171.65 435.149 191.366 436.025 211.475H435.875C434.375 193.075 428.875 172.05 419.55 156.1C416.384 150.747 412.441 145.894 407.85 141.7C407.796 141.643 407.731 141.596 407.659 141.564C407.587 141.532 407.509 141.514 407.43 141.511C407.351 141.509 407.273 141.522 407.199 141.55C407.125 141.578 407.057 141.621 407 141.675C406.942 141.729 406.896 141.794 406.864 141.866C406.832 141.938 406.814 142.016 406.811 142.095C406.809 142.174 406.822 142.252 406.85 142.326C406.878 142.4 406.921 142.468 406.975 142.525C414.685 150.082 420.656 159.227 424.475 169.325C430.143 182.594 433.524 196.727 434.475 211.125L433.525 210.875C433.226 199.949 430.709 189.198 426.125 179.275H426.1ZM410.475 196.525C416.453 199.166 421.466 203.594 424.825 209.2H423.75C423.757 209.044 423.703 208.892 423.6 208.775C421.803 206.165 419.399 204.03 416.594 202.553C413.79 201.077 410.669 200.304 407.5 200.3H406.6C405.9 198.6 405.2 196.925 404.425 195.3C406.527 195.081 408.646 195.509 410.5 196.525H410.475ZM422.075 209.025C418.006 208.754 413.921 208.871 409.875 209.375C409.025 206.875 408.075 204.175 407.05 201.625C409.937 201.683 412.777 202.366 415.375 203.626C417.973 204.886 420.267 206.694 422.1 208.925L422.075 209.025ZM308.8 180.525C316.748 172.125 326.974 166.226 338.225 163.55C338.577 163.866 338.963 164.142 339.375 164.375C342.99 165.904 346.875 166.694 350.8 166.7C355.213 166.758 359.622 166.424 363.975 165.7C367.875 172.75 372.8 175.025 379.175 181.7C381.608 184.387 383.614 187.43 385.125 190.725C386.824 185.891 386.972 180.647 385.55 175.725C384.239 171.359 382.285 167.214 379.75 163.425C386.314 169.287 391.894 176.167 396.275 183.8C401.06 191.997 404.941 200.69 407.85 209.725C397.519 211.229 387.675 215.095 379.081 221.022C370.487 226.949 363.376 234.778 358.3 243.9C349.9 258.9 347.325 272.05 346 287.275C342.003 286.505 338.067 285.444 334.225 284.1C328.838 282.367 323.838 279.608 319.5 275.975C317.136 274.099 315.217 271.723 313.882 269.017C312.546 266.311 311.826 263.342 311.775 260.325C322.225 249.275 331.375 233.475 337.825 215.125C337.887 215.001 337.919 214.864 337.919 214.725C337.919 214.586 337.887 214.449 337.825 214.325C337.797 214.222 337.735 214.131 337.648 214.067C337.562 214.004 337.457 213.971 337.35 213.975C336.55 213.975 335.875 216.325 335.375 217.625C330.025 231.675 316.225 254.925 306.35 263.575C301.548 267.903 296.088 271.439 290.175 274.05C276.794 279.954 262.947 284.737 248.775 288.35C245.83 289.382 242.644 289.512 239.625 288.725C236.55 287.925 234.625 285.3 236.15 282.65C238.275 279.325 241.45 278.525 245.875 274.75C251.05 270.3 282.4 246.375 287.625 242.25C288.036 241.934 288.383 241.544 288.65 241.1C289.1 240.325 289.075 240.05 289.875 234.775C292.775 215.85 296.05 194.275 308.825 180.425L308.8 180.525ZM235.65 288.325C234.376 287.925 232.997 288.035 231.803 288.632C230.609 289.229 229.694 290.266 229.25 291.525C228.15 293.425 227.225 292.45 227.475 291.275C228.888 288.199 231.108 285.564 233.9 283.65C233.756 284.514 233.843 285.401 234.15 286.222C234.457 287.042 234.974 287.767 235.65 288.325ZM305.425 266.075C307.648 266.036 309.87 266.238 312.05 266.675C312.397 267.731 312.823 268.758 313.325 269.75C311.2 269.75 304.825 269.05 302 268.65C303.15 267.825 304.3 266.975 305.425 266.075ZM281.325 322.5C281.451 321.933 281.748 321.419 282.175 321.025C293.474 325.188 304.991 328.735 316.675 331.65C326.451 334.016 336.466 335.258 346.525 335.35C345.575 342.325 341.825 346.55 337.525 348.15C334.708 349.136 331.733 349.594 328.75 349.5C312.85 349.275 299.475 345.725 287.175 334.275C285.625 332.825 280.5 326.325 281.325 322.5ZM219.8 299.125C186.825 303.075 133.45 309.425 133.175 309.675C132.9 309.925 133.8 284.675 133.525 280.15L221.025 269.675C220.3 280 220 290.35 219.8 299.175V299.125ZM169.8 338.825L170.3 344.35C170.765 346.857 170.567 349.443 169.725 351.85C169.609 351.821 169.489 351.817 169.371 351.838C169.254 351.86 169.143 351.907 169.045 351.976C168.948 352.045 168.866 352.134 168.807 352.238C168.747 352.341 168.711 352.456 168.7 352.575C168.196 354.633 167.886 356.734 167.775 358.85C168.175 363.05 169.95 363.425 169.8 370.2C168.775 369.375 164.8 366.375 163.85 365.625C163.663 365.564 163.462 365.564 163.275 365.625C160.323 362.3 157.56 358.811 155 355.175C154.514 354.391 154.21 353.507 154.111 352.59C154.011 351.673 154.119 350.745 154.425 349.875C154.975 346.725 155.7 343.85 156.55 340.65C157.621 341.444 158.778 342.115 160 342.65C163.55 343.75 167.175 341.4 169.85 338.875L169.8 338.825ZM153.675 356.125C154.881 358.163 156.325 360.051 157.975 361.75C157.975 361.75 161.575 365.6 162.75 366.75V367.15C162.685 367.279 162.6 367.397 162.5 367.5H161.55C159.05 367.05 159.425 366.275 147.9 360C146.516 356.387 144.337 353.132 141.525 350.475C141.525 348.675 141.525 346.85 141.275 345.075C142.945 344.963 144.576 344.521 146.075 343.775C149.075 342.05 151.775 338.775 155.3 340.025C151.95 351.45 151.825 353.875 153.725 356.175L153.675 356.125ZM140 345C140 346.475 140.2 347.925 140.225 349.5C138.11 347.94 135.691 346.841 133.125 346.275V344.25C135.398 344.65 137.694 344.9 140 345ZM121.425 279.325C121.69 276.776 121.773 274.211 121.675 271.65C132.1 270.7 127.25 271.175 268.15 254.5C264.35 257.425 260.45 260.475 256.975 263.2C257.025 263.25 123.325 279.075 121.475 279.375L121.425 279.325ZM291.65 213.9C289.026 214.053 286.539 215.124 284.625 216.925C284.327 216.724 284.072 216.465 283.875 216.165C283.678 215.865 283.542 215.528 283.475 215.175C283.475 214.425 286.8 211.425 292.2 211.475C292.075 212.325 291.875 213.15 291.7 213.95L291.65 213.9ZM290.25 220.575C289.65 223.725 289.125 226.925 288.6 230.25C285.415 227.062 283.534 222.801 283.325 218.3C284.211 219.226 285.309 219.921 286.524 220.326C287.74 220.732 289.036 220.834 290.3 220.625L290.25 220.575ZM260.25 138.075C259.325 137.926 258.407 137.734 257.5 137.5C257.801 136.831 258.011 136.125 258.125 135.4C258.95 135.75 261.225 136.775 261.625 137.575C262.025 138.375 260.9 138.275 260.35 138.2L260.25 138.075ZM251.4 127.925C253.067 127.309 254.688 126.574 256.25 125.725C256.8 125.875 255.7 128.525 252.55 129.4C252.429 129.434 252.32 129.499 252.232 129.588C252.144 129.677 252.08 129.787 252.048 129.908C252.015 130.029 252.014 130.156 252.045 130.277C252.076 130.399 252.138 130.51 252.225 130.6C251.925 134 248.375 134.425 248.925 135.6C249.475 136.775 253.125 134.425 253.275 130.95C256.095 130.914 258.865 131.696 261.25 133.2C261.5 133.425 262.65 134.1 261.25 134.275C260.112 134.281 258.983 134.069 257.925 133.65C257.938 133.55 257.938 133.45 257.925 133.35C257.925 132.925 257.55 132.35 257.075 132.45C256.6 132.55 256.675 133.25 256.7 133.475C256.81 134.303 256.749 135.146 256.521 135.95C256.293 136.753 255.903 137.502 255.375 138.15C255.335 138.273 255.332 138.406 255.368 138.531C255.403 138.655 255.476 138.767 255.575 138.85C255.66 138.894 255.754 138.917 255.85 138.917C255.946 138.917 256.04 138.894 256.125 138.85H256.275C257.4 139.369 258.38 140.16 259.125 141.15C259.161 141.207 259.181 141.273 259.183 141.341C259.184 141.409 259.168 141.476 259.134 141.535C259.101 141.594 259.052 141.642 258.993 141.676C258.934 141.709 258.868 141.726 258.8 141.725C256.775 141.925 256.05 140.625 253.55 139.975C250.65 139.25 249.2 139.3 248.075 138.8C247.141 138.278 246.363 137.517 245.823 136.594C245.282 135.671 244.998 134.62 245 133.55C246.397 130.964 248.718 129 251.5 128.05L251.4 127.925ZM196.55 151.425C196.666 151.592 196.837 151.714 197.033 151.769C197.23 151.823 197.439 151.808 197.625 151.725C205.136 147.729 213.161 144.785 221.475 142.975C226.092 141.801 230.633 140.348 235.075 138.625C237.961 137.64 240.709 136.287 243.25 134.6C243.518 136.113 244.245 137.507 245.331 138.594C246.418 139.68 247.812 140.407 249.325 140.675C236.58 157.752 218.428 170.01 197.825 175.45C195.393 176.162 192.853 176.433 190.325 176.25C188.233 175.832 186.195 175.178 184.25 174.3C179.686 172.333 175.259 170.062 171 167.5C172.575 163.75 174.625 160.15 176.7 154.55C177.832 150.115 177.935 145.48 177 141C176.075 136.325 173.375 126.5 173.3 126.25C173.3 125.5 172.8 124.45 172.2 124.8C171.6 125.15 171.8 125.775 171.825 125.9C171.85 126.025 172.55 128.975 172.7 129.5C173.7 133.475 174.325 137.35 174.925 141.35C177.125 155 173.7 157.4 169.075 167.4C167.479 170.859 166.32 174.504 165.625 178.25C165.125 181.1 164.55 184.525 166.325 187.05L157.1 187.55C161.969 178.148 165.735 168.216 168.325 157.95C169.84 151.896 170.901 145.737 171.5 139.525C171.75 137.675 171.975 136.1 170.675 134.85C170.25 134.425 169.975 134.2 163.75 128.7C170.55 125.225 169.525 125.65 170.15 125.625C170.254 125.602 170.352 125.557 170.439 125.495C170.526 125.433 170.599 125.355 170.655 125.264C170.711 125.173 170.748 125.072 170.765 124.966C170.781 124.861 170.776 124.753 170.75 124.65C168.903 118.172 166.692 111.803 164.125 105.575C183.625 119.825 187.5 135.625 196.65 151.55L196.55 151.425ZM168.375 123.925C162.375 127 162.2 127.075 161.475 127.525C161.39 127.6 161.322 127.692 161.275 127.796C161.228 127.899 161.204 128.011 161.204 128.125C161.204 128.238 161.228 128.351 161.275 128.454C161.322 128.558 161.39 128.65 161.475 128.725C169.65 135.875 169.825 135.825 169.775 136.775C169.725 137.725 169.475 139.525 169.375 140.8C168.203 150.975 165.897 160.987 162.5 170.65C160.489 176.463 158.109 182.141 155.375 187.65L150.85 187.9C153.666 176.965 155.655 165.834 156.8 154.6C157.622 147.54 157.914 140.429 157.675 133.325C157.675 121.35 157.475 107.375 152.025 97.675C155.685 98.8061 158.873 101.107 161.1 104.225C162.75 106.425 163.625 108.1 168.475 124.125L168.375 123.925ZM128.125 93.45C128.497 93.3796 128.841 93.2064 129.12 92.9501C129.398 92.6939 129.599 92.3647 129.7 92C130.816 88.3778 131.652 84.6753 132.2 80.925C135.973 79.4742 139.067 76.6654 140.875 73.05C140.21 73.1102 139.541 72.9828 138.944 72.6824C138.348 72.3819 137.847 71.9203 137.5 71.35C136.722 70.2023 136.241 68.8794 136.1 67.5C135.2 63.775 137.025 60.5 139.15 60.25C141.85 59.95 143.525 65.9 143.925 68.375C143.925 69.175 144.55 69.325 145.275 68.975C149.64 67.288 153.324 64.2022 155.75 60.2C158.25 56.575 161.775 50.375 161.525 46C168.088 48.6506 173.36 53.7528 176.225 60.225C175.957 68.6814 173.631 76.9449 169.45 84.3C168.231 86.6628 166.528 88.7415 164.45 90.4C162.193 91.745 159.565 92.332 156.95 92.075C154.269 91.9422 151.675 91.0776 149.45 89.575C149.303 89.5593 149.155 89.5924 149.028 89.6692C148.902 89.746 148.804 89.8622 148.75 90C148.159 91.4941 147.804 93.0715 147.7 94.675C147.61 95.1794 147.61 95.6956 147.7 96.2C148 96.8 148.75 96.95 149.1 97.125L150.975 98.025C152.376 100.469 153.46 103.082 154.2 105.8C153.595 106.499 152.779 106.982 151.875 107.175C145.268 109.025 138.214 108.412 132.025 105.45C130.443 101.204 127.951 97.3562 124.725 94.175C125.876 94.0267 127.013 93.7842 128.125 93.45ZM116.15 95.95C116.375 94.8 116.15 94.875 117.6 94.475C118.5 94.3 118.925 94.325 120.1 94.15C120.509 94.0174 120.941 93.9669 121.37 94.0012C121.799 94.0355 122.217 94.154 122.6 94.35C123.265 94.907 123.884 95.5174 124.45 96.175C127.583 99.8326 129.946 104.084 131.4 108.675C133.022 113.836 134.226 119.12 135 124.475C138.8 147.575 138.125 155.525 138.125 185.575C136.425 184.925 134.75 184.3 133.125 183.725C131.543 164.93 125.987 146.686 116.825 130.2L128.225 126.4C129.475 125.925 129.575 125.475 128.225 124.8C123.452 122.305 118.545 120.076 113.525 118.125C112.2 117.4 111.8 117.15 112.45 114.65C112.625 114.125 112.625 114.35 116.15 96.025V95.95ZM106.85 99.55C109.186 98.3046 111.651 97.3155 114.2 96.6C113.85 98.375 110.8 113.925 110.725 114.275C110.3 115.95 109.85 117.875 111.925 118.9C116.6 121.2 121.6 122.9 126.2 125.325C114.7 129.575 115.95 129.15 115.5 129.15C115.4 129.15 115.305 129.19 115.235 129.26C115.164 129.33 115.125 129.426 115.125 129.525V130C124.096 146.554 129.855 164.656 132.1 183.35C129.2 182.325 119.6 179.3 119.6 179.3C116.134 177.843 112.521 176.762 108.825 176.075C112.5 164.35 115.525 156.375 116.85 142.95C116.82 142.328 116.879 141.705 117.025 141.1C117.325 140 117.3 139.275 116.85 138.925C116.755 138.87 116.647 138.841 116.537 138.841C116.428 138.841 116.32 138.87 116.225 138.925C115.825 139.25 115.9 140.225 115.875 140.675C115.359 145.54 114.575 150.372 113.525 155.15C111.175 165.875 107.15 174.875 107.025 176.525C107.025 177.775 108.425 177.925 109.075 178.025C111.22 178.379 113.334 178.897 115.4 179.575C135.175 185.625 143.925 189.1 167.15 200.25C166.447 200.76 165.855 201.407 165.41 202.152C164.965 202.898 164.677 203.726 164.562 204.587C164.448 205.448 164.509 206.323 164.744 207.159C164.978 207.995 165.38 208.774 165.925 209.45C166.005 209.538 166.098 209.614 166.2 209.675C164.544 209.92 162.874 210.062 161.2 210.1C136.475 210.525 99.4249 210.95 82.9999 191.325C79.4955 186.73 77.4413 181.194 77.0999 175.425C75.1749 159.975 78.1999 143.575 83.0749 128.85C87.2835 116.597 95.71 106.239 106.85 99.625V99.55ZM184.225 205.65C187.05 205.3 201.725 203.15 202.275 203.15C207.875 202.125 208.275 202.55 213.7 206.375C219.125 210.2 236.2 221.15 255.525 231.825C240.525 235.15 225.275 238.175 210.075 240.85C208.029 241.619 205.785 241.681 203.7 241.025C201.2 239.475 179.675 221.225 166.825 210.825H167.675C168.112 211.059 168.591 211.203 169.085 211.25C169.578 211.298 170.076 211.246 170.55 211.1C171.178 210.91 171.847 210.91 172.475 211.1C173.582 211.604 174.538 212.388 175.25 213.375C175.557 213.733 175.942 214.015 176.376 214.201C176.809 214.388 177.279 214.473 177.75 214.45C179.225 214.15 179.35 212.825 178.775 211.4C179.175 211.65 179.575 211.9 179.975 212.1C180.245 212.257 180.545 212.353 180.856 212.383C181.166 212.414 181.48 212.377 181.775 212.275C181.9 212.275 198.85 209.25 198.975 209.225C202.35 208.675 205.825 208.125 209.175 207.25C209.9 207.25 209.775 205.95 209.175 206.025C204.8 206.525 204.575 206.775 183.225 211.025C183.303 210.36 183.172 209.687 182.85 209.1C183.137 209.197 183.445 209.214 183.74 209.147C184.035 209.081 184.307 208.935 184.525 208.725C185.125 207.95 184.625 206.55 184.225 205.65ZM182.5 207.5L180.425 205.9L179.725 205.325C179.05 204.775 178.125 205.725 178.8 206.325C179.475 206.925 182.8 210.6 181.625 211.125C181.025 211.35 180.475 210.85 176.875 208.175C176.275 207.725 175.45 208.55 175.9 209.125C176.583 209.964 177.124 210.91 177.5 211.925C177.5 212.275 177.7 212.85 177.5 212.975C177.3 213.1 177.1 212.975 176.8 212.8C176.371 212.504 175.984 212.151 175.65 211.75C175.074 210.946 174.283 210.322 173.367 209.951C172.451 209.579 171.448 209.475 170.475 209.65C169.933 209.814 169.359 209.841 168.805 209.728C168.251 209.614 167.733 209.364 167.3 209C164.625 206.7 166.4 200.875 169.975 201.175C173.3 200.621 176.714 201.249 179.625 202.95C181.367 204.032 182.642 205.726 183.2 207.7C183.076 207.724 182.948 207.719 182.826 207.684C182.704 207.649 182.592 207.586 182.5 207.5ZM60.3999 140C62.8999 130 68.8249 116.575 82.3999 108.8C87.6541 105.997 93.314 104.031 99.1749 102.975C91.2257 109.685 85.1386 118.329 81.4999 128.075C78.6786 136.309 76.669 144.8 75.4999 153.425C74.5504 160.532 74.5 167.73 75.3499 174.85C75.5822 178.604 76.4267 182.294 77.8499 185.775C78.8494 187.92 80.0818 189.949 81.5249 191.825L56.3249 193.225C56.3749 171.3 56.5999 156.125 60.3999 140ZM82.8999 193.35C92.8999 204.875 113.375 209.525 128.775 210.85C140.623 211.698 152.512 211.815 164.375 211.2C164.525 211.45 196 236.7 200.375 240.475C201.762 242.041 203.692 243.024 205.775 243.225C207.649 243.041 209.51 242.749 211.35 242.35C230.35 238.475 235.275 238 257.95 232.95C258.128 232.918 258.29 232.823 258.406 232.684C258.523 232.545 258.586 232.369 258.586 232.187C258.586 232.006 258.523 231.83 258.406 231.691C258.29 231.552 258.128 231.457 257.95 231.425C230.45 216.275 217.75 206.775 210.45 202.5C209.472 201.945 208.394 201.591 207.278 201.457C206.162 201.324 205.03 201.415 203.95 201.725L183.95 204.775C183.601 204.161 183.182 203.591 182.7 203.075C180.951 201.524 178.853 200.421 176.584 199.859C174.316 199.297 171.945 199.294 169.675 199.85C169.476 199.826 169.274 199.826 169.075 199.85C163.275 197 156.975 193.9 150.475 190.95C150.6 190.5 150.7 190.05 150.825 189.625L306.7 180.875C301.2 187.4 296.7 195.325 292.925 210.025C289.482 209.789 286.073 210.83 283.35 212.95C282.706 213.415 282.225 214.071 281.975 214.825C281.838 215.316 281.838 215.834 281.975 216.325C281.83 219.285 282.345 222.24 283.482 224.977C284.619 227.714 286.35 230.164 288.55 232.15C288.55 232.9 287.45 239.2 287.45 239.2C287.422 239.488 287.325 239.765 287.169 240.009C287.012 240.252 286.8 240.455 286.55 240.6L270.925 252.5C144.85 267.05 123.425 270 120.5 270.425C119.3 269.675 26.4749 204.7 15.4999 197.15L82.8999 193.35ZM13.8749 203.35C14.0249 198.65 13.8749 198.75 13.8749 198.5C26.6499 208.275 118.625 271.525 119.925 272C119.925 272.525 119.5 278.625 119.5 278.975L13.8749 203.35ZM33.8749 337.65C32.2249 337.65 33.6499 337.65 26.7749 338.475C29.1045 335.524 32.0144 333.082 35.3249 331.3C38.4299 329.97 41.8038 329.388 45.1749 329.6C40.1999 330.3 34.6749 333.425 33.6999 337.5L33.8749 337.65ZM123.25 431.75L114.425 423.65C114.583 421.801 114.541 419.94 114.3 418.1C113.405 410.547 111.73 403.107 109.3 395.9C105.965 385.858 101.512 376.222 96.0249 367.175C86.0249 349.925 68.3249 331 48.8499 327.475C44.2075 326.331 39.3176 326.746 34.9348 328.658C30.5521 330.569 26.9203 333.869 24.5999 338.05L18.1749 332.15C18.7999 320.375 19.8249 215.925 19.7749 209.65C104.175 270.125 117.275 279.65 119.775 281.2C120.725 281.8 120.775 281.65 122.025 281.5L125.225 281.125C124.575 288.65 123.175 423.475 123.25 431.75ZM130.275 430.675L125.275 431.675C125.7 423.075 126.125 414.175 126.225 405.475C126.225 405.475 126.725 283.9 126.5 281.025L132.425 280.325C131.675 287.325 130.2 422.875 130.275 430.675ZM160 410.325C160.268 410.774 160.502 411.241 160.7 411.725C156.305 409.627 152.119 407.116 148.2 404.225C148.071 404.17 147.927 404.16 147.792 404.197C147.656 404.234 147.537 404.315 147.454 404.427C147.37 404.54 147.327 404.677 147.33 404.817C147.334 404.957 147.385 405.092 147.475 405.2C151.285 408.797 155.76 411.616 160.65 413.5C160.736 413.542 160.83 413.564 160.925 413.564C161.02 413.564 161.114 413.542 161.2 413.5V413.85C161.2 415.275 160.2 415.975 159.025 416.35C156.944 417.052 154.813 417.596 152.65 417.975C150.5 418.4 148.375 418.9 146.2 419.275C145.136 419.623 144.018 419.776 142.9 419.725C141.225 419.375 141.1 417.225 140.725 415.9C137.858 405.65 135.358 395.308 133.225 384.875C132.975 383.775 133.05 379.125 133.05 354.875C134.104 357.58 134.875 360.386 135.35 363.25C136 365.75 139.4 379.175 139.9 381.25C141.3 387 142.775 392.925 144.625 398.6C144.622 398.687 144.638 398.773 144.672 398.853C144.705 398.934 144.756 399.005 144.821 399.064C144.885 399.122 144.961 399.166 145.044 399.192C145.127 399.219 145.214 399.226 145.301 399.215C145.387 399.204 145.47 399.175 145.543 399.129C145.617 399.082 145.68 399.021 145.727 398.948C145.775 398.875 145.806 398.793 145.818 398.707C145.831 398.621 145.825 398.533 145.8 398.45C144.575 392.075 142.8 385.375 136.575 362.25C135.931 358.753 134.742 355.378 133.05 352.25V347.25C134.139 347.423 135.166 347.866 136.04 348.539C136.913 349.211 137.604 350.092 138.05 351.1C141.156 356.119 143.673 361.479 145.55 367.075C150.8 382.325 151.575 393.65 160 410.325ZM158.875 392.35C159.753 394.136 160.835 395.814 162.1 397.35C159.735 397.002 157.45 396.241 155.35 395.1C149.975 378.75 148.325 366.525 140.85 353.725C139.948 352.136 138.92 350.623 137.775 349.2C140.731 351.016 143.081 353.67 144.525 356.825C150.575 370.925 152.5 380.525 158.975 392.35H158.875ZM164.725 376.075C157.225 375.35 153.95 373.1 151.75 371.075C151.75 371.075 149.475 364.7 148.85 363C151.6 364.6 156.575 367.425 157.25 367.8C158.432 368.638 159.828 369.124 161.275 369.2C161.861 369.169 162.429 368.987 162.924 368.672C163.42 368.357 163.824 367.918 164.1 367.4C166.197 369.177 168.383 370.846 170.65 372.4C171.425 372.925 172.15 373.475 172.175 374.1C172.3 376.35 167.025 376.3 164.825 376.075H164.725ZM194.575 365.6C196.875 367.325 199 369.275 201.25 370.6C202.4 371.325 203.35 372.35 202.375 373.275C198.85 375.4 192.075 373.825 189.875 373.275C187.054 372.602 184.464 371.186 182.375 369.175C180.3 367.175 178.45 364.35 175.15 363.15C174.984 363.063 174.799 363.019 174.611 363.02C174.424 363.021 174.239 363.068 174.074 363.157C173.909 363.246 173.768 363.373 173.664 363.529C173.559 363.685 173.494 363.864 173.475 364.05L172.85 372.125C172.425 372.125 172.85 372.125 171.4 371.225C171.75 368.552 171.537 365.836 170.775 363.25C170.179 361.754 169.76 360.193 169.525 358.6C169.532 357.164 169.726 355.736 170.1 354.35V354.05C171.383 355.305 172.762 356.459 174.225 357.5C176.375 359.05 185.05 364.425 187.8 365.8C190.125 367.5 193.55 368.1 194.675 365.6H194.575ZM183.025 348.275C182.749 349.452 182.762 350.678 183.062 351.849C183.363 353.02 183.942 354.101 184.75 355C187.42 358.372 190.283 361.585 193.325 364.625C193.325 364.875 193.325 365.15 192.775 365.45C192.225 365.75 190.05 365.025 188.975 364.225C178.3 357.575 175.375 356.725 171.275 353.1C172.385 350.262 172.671 347.168 172.1 344.175C171.85 342.15 171.375 337.65 171.35 337.45C176.6 332.45 180.175 331.075 186.35 335.1C185.043 339.432 183.966 343.829 183.125 348.275H183.025ZM221.325 299C221.7 290.25 222.075 280 222.125 269.575L253.85 265.725C241.35 275.5 243.65 274.25 239.675 276.825C237.644 277.953 235.926 279.568 234.675 281.525C232.433 282.311 230.398 283.595 228.723 285.279C227.048 286.963 225.775 289.004 225 291.25C224.886 291.694 224.869 292.156 224.948 292.607C225.027 293.058 225.201 293.487 225.459 293.866C225.717 294.244 226.052 294.563 226.443 294.802C226.833 295.041 227.271 295.193 227.725 295.25C228.312 295.221 228.885 295.058 229.4 294.775C229.05 295.9 228.725 297 228.45 298.15L221.325 299ZM298.825 426.5C299.025 434 287 434.275 286.775 426.5C286.775 420.4 288.25 358.2 288.275 356.8C288.625 357.15 288.95 357.525 289.325 357.85C292.729 360.889 296.431 363.578 300.375 365.875C300.175 371.375 299.35 417.5 298.7 426.55L298.825 426.5ZM374.075 474C374.094 474.743 373.958 475.483 373.675 476.171C373.392 476.858 372.969 477.48 372.433 477.995C371.896 478.51 371.259 478.908 370.56 479.163C369.861 479.418 369.117 479.524 368.375 479.475C366.907 479.495 365.489 478.938 364.428 477.923C363.366 476.909 362.746 475.518 362.7 474.05C362.7 468.325 364.15 381.85 364.2 379.85C367.625 379.85 370.825 379.85 375.6 379.575C375.375 389.625 374.6 465.3 373.95 474.175L374.075 474ZM408.825 416.175C409.05 423.85 397 423.925 396.775 416.175C396.775 409.325 397.975 381.325 398.225 375C402.706 373.345 406.919 371.037 410.725 368.15C410.3 377.175 409.275 408.225 408.7 416.35L408.825 416.175ZM450.4 353.675C447.675 356.625 440.4 358 436.375 358.375C430.888 358.945 425.35 358.802 419.9 357.95C420.5 356.967 421.075 355.967 421.625 354.95C431.835 356.739 442.35 355.205 451.625 350.575C451.432 351.779 450.971 352.924 450.275 353.925L450.4 353.675ZM460.6 337.175C459.237 341.626 456.431 345.496 452.625 348.175C445.525 352.325 436 355 422.4 353.4C422.78 352.646 423.114 351.869 423.4 351.075C423.4 349.875 428.4 342.275 429.575 313.575C439.721 314.923 450.042 313.675 459.575 309.95C461.609 309.16 463.445 307.93 464.95 306.35C464.675 317.95 464.225 327.5 460.475 337.5L460.6 337.175ZM464.825 304.025C463.375 307.15 459.45 308.725 455.85 309.925C447.362 312.538 438.429 313.389 429.6 312.425L429.75 308.975C434.836 309.65 439.989 309.65 445.075 308.975C448.708 308.549 452.281 307.71 455.725 306.475C458.909 305.634 461.745 303.804 463.825 301.25C464.378 300.433 464.605 299.438 464.462 298.462C464.318 297.486 463.815 296.599 463.05 295.975C464.284 296.924 465.131 298.288 465.434 299.815C465.738 301.342 465.477 302.926 464.7 304.275L464.825 304.025ZM463.05 298.575C463.021 299.129 462.885 299.672 462.65 300.175V299.825C462.25 299.125 461.75 299.2 461.45 298.925C461.15 298.65 460.55 297.025 460.075 296.125L459.2 294.525C460.625 295.825 462.675 297.125 462.925 298.825L463.05 298.575ZM434.175 281.475C434.65 281.475 435.2 282.15 435.775 282.85C435.842 282.943 435.93 283.019 436.033 283.071C436.135 283.123 436.248 283.15 436.362 283.15C436.477 283.15 436.59 283.123 436.692 283.071C436.794 283.019 436.883 282.943 436.95 282.85L437.225 282.4C438.52 282.366 439.814 282.501 441.075 282.8C443.259 283.457 445.115 284.912 446.275 286.875C446.7 287.575 447.4 286.875 449.75 287.225C450.285 287.315 450.787 287.548 451.2 287.9C451.7 288.35 451.65 289.1 452.1 289.75C453.025 291.1 454.375 290.825 455.55 291.325C456.725 291.825 456.825 292.95 457.35 294C457.875 295.05 458.25 295.675 458.825 296.675C459.133 297.811 459.526 298.922 460 300C460.525 300.7 461.8 301 461.75 301.775C461.448 302.096 461.103 302.374 460.725 302.6C458.142 304.277 455.293 305.503 452.3 306.225C444.927 307.914 437.339 308.462 429.8 307.85C430.25 291.925 429.8 298 430.4 282.375C430.785 282.537 431.133 282.775 431.425 283.075C431.56 283.171 431.722 283.222 431.887 283.222C432.053 283.222 432.215 283.171 432.35 283.075C432.675 282.5 433.5 281.725 434.05 281.725L434.175 281.475ZM433.125 261.85C432.746 264.062 432.604 266.308 432.7 268.55C432.7 268.8 432.55 271.3 432.425 273.95C432.066 276.315 431.932 278.709 432.025 281.1C431.517 280.852 430.99 280.643 430.45 280.475C430.765 271.601 431.827 262.77 433.625 254.075C433.25 256.925 433.1 259.525 433 262.1L433.125 261.85ZM460.675 240C457.086 239.573 453.447 240.033 450.077 241.341C446.708 242.648 443.711 244.763 441.35 247.5C438.969 250.417 437.047 253.679 435.65 257.175C436.628 253.953 438.032 250.875 439.825 248.025C441.45 245.525 447.575 237.35 455.775 237.35C458.025 237.35 463 238.725 464.075 240.9C464.26 241.314 464.317 241.773 464.236 242.22C464.156 242.666 463.943 243.077 463.625 243.4C461.375 246.325 455.725 245.125 452.475 245.6C447.225 246.35 442.475 250.4 438.025 258.1C436.468 260.663 435.194 263.387 434.225 266.225V265.825C435.512 259.605 438.225 253.769 442.15 248.775C444.457 246.203 447.32 244.19 450.521 242.891C453.722 241.591 457.178 241.038 460.625 241.275C460.791 241.275 460.95 241.209 461.067 241.092C461.184 240.975 461.25 240.816 461.25 240.65C461.257 240.569 461.247 240.488 461.222 240.411C461.196 240.334 461.155 240.263 461.101 240.202C461.048 240.141 460.982 240.092 460.909 240.057C460.836 240.023 460.756 240.003 460.675 240ZM445.175 218.45C445.293 220.886 444.438 223.269 442.8 225.075C430.875 242.925 428.675 265.65 428.075 283.425C427.35 302.625 428.425 323.65 423.375 343.425C415.575 376.075 382.625 379.325 350.075 377.4C323.225 375.425 303.525 368.5 289.85 356.2C284.893 351.862 280.928 346.507 278.225 340.5C276.758 337.153 276.173 333.487 276.525 329.85C276.847 327.292 277.849 324.866 279.425 322.825C279.425 327.3 284.075 333.2 285.85 334.925C294.977 343.375 306.548 348.714 318.9 350.175C322.55 350.175 330.425 351.875 338.15 349.375C341.167 348.09 343.753 345.969 345.605 343.263C347.456 340.557 348.495 337.377 348.6 334.1C349.85 319.5 346.675 315.775 347.4 297.125C347.95 272.75 352.625 257.5 359.9 244.25C365.293 234.572 373.019 226.395 382.375 220.462C391.731 214.529 402.421 211.027 413.475 210.275C426.65 209.4 437.9 212.775 442.225 215.275C442.919 215.583 443.541 216.033 444.049 216.598C444.558 217.162 444.941 217.827 445.175 218.55V218.45ZM482.675 173.625C479.1 176.7 473.375 178.15 468.475 179.95C456.275 184.95 444.5 198.575 439.625 212.45L437.675 211.8C442.7 194.703 453.564 179.91 468.375 170C469.7 170.25 468.9 167.725 467.975 168.675C452.849 178.261 441.807 193.107 436.975 210.35V208.25C443.65 190.75 452.775 171.575 469.7 161.475C479.325 155.625 486.85 160.225 486.675 166.025C486.522 167.521 486.075 168.971 485.358 170.293C484.642 171.615 483.67 172.781 482.5 173.725L482.675 173.625Z" fill="black"/>
</svg>
